<svg width="100" height="100" viewBox="0 0 100 100" fill="none" xmlns="http://www.w3.org/2000/svg">
<path d="M21.875 40.625C32.2303 40.625 40.625 32.2303 40.625 21.875C40.625 11.5197 32.2303 3.125 21.875 3.125C11.5197 3.125 3.125 11.5197 3.125 21.875C3.125 32.2303 11.5197 40.625 21.875 40.625Z" fill="#8F75FF"/>
<path d="M34.3297 7.88594C31.0156 4.93437 26.6625 3.125 21.875 3.125C11.5203 3.125 3.125 11.5203 3.125 21.875C3.125 27.2484 5.39687 32.0797 9.01875 35.4984C23.1172 33.2344 33.9 21.8062 34.3297 7.88594Z" fill="#B09EFF"/>
<path d="M46.875 28.125H84.375V81.25H46.875V28.125Z" fill="#ECEAEC"/>
<path d="M46.875 28.125V62.4766C47.1359 62.4828 47.3938 62.5 47.6562 62.5C65.4203 62.5 80.2375 47.7375 83.6391 28.125H46.875Z" fill="#F4F2F4"/>
<path d="M78.7531 75.9848L70.3875 68.8145L64.5828 81.2504H22.9172L17.1141 68.8145L8.74688 75.9848C7.1625 77.3441 6.25 79.327 6.25 81.4145H81.25C81.25 79.327 80.3375 77.3441 78.7531 75.9848Z" fill="#EECBAE"/>
<path d="M32.0312 81.25L29.6875 57.8125H57.8125L55.4688 81.25H32.0312Z" fill="#AA7F5A"/>
<path d="M29.6875 60.9375L15.625 65.625L22.9172 81.25H32.0312L30 60.9375H29.6875Z" fill="#E2A978"/>
<path d="M57.8125 60.9375H57.5L55.4688 81.25H64.5828L71.875 65.625L57.8125 60.9375Z" fill="#E2A978"/>
<path d="M3.125 81.25H96.875V87.5H3.125V81.25Z" fill="#DAD8DB"/>
<path d="M6.25 87.5L14.0625 96.875H85.9375L93.75 87.5H6.25Z" fill="#ECEAEC"/>
<path d="M84.375 65.625H87.5C89.2266 65.625 90.625 64.2266 90.625 62.5V46.875C90.625 45.1484 89.2266 43.75 87.5 43.75H84.375V37.5H87.5C92.6781 37.5 96.875 41.6969 96.875 46.875V62.5C96.875 67.6781 92.6781 71.875 87.5 71.875H84.375V65.625Z" fill="#DAD8DB"/>
<path d="M72.9797 19.8549L70.7703 17.6455L72.7906 15.6252C73.2016 15.2143 73.4375 14.6439 73.4375 14.0627C73.4375 13.4814 73.2016 12.9111 72.7906 12.5002L71.875 11.5846C70.8672 10.5783 70.3125 9.23769 70.3125 7.8127C70.3125 6.38769 70.8672 5.04707 71.875 4.04082L73.8953 2.02051L76.1047 4.22988L74.0844 6.2502C73.6734 6.66113 73.4375 7.23144 73.4375 7.8127C73.4375 8.39394 73.6734 8.96426 74.0844 9.37519L75 10.2908C76.0078 11.2971 76.5625 12.6377 76.5625 14.0627C76.5625 15.4877 76.0078 16.8283 75 17.8346L72.9797 19.8549Z" fill="#A3A2A4"/>
<path d="M65.1672 19.8549L62.9578 17.6455L64.9781 15.6252C65.3891 15.2143 65.625 14.6439 65.625 14.0627C65.625 13.4814 65.3891 12.9111 64.9781 12.5002L64.0625 11.5846C63.0547 10.5783 62.5 9.23769 62.5 7.8127C62.5 6.38769 63.0547 5.04707 64.0625 4.04082L66.0828 2.02051L68.2922 4.22988L66.2719 6.2502C65.8609 6.66113 65.625 7.23144 65.625 7.8127C65.625 8.39394 65.8609 8.96426 66.2719 9.37519L67.1875 10.2908C68.1953 11.2971 68.75 12.6377 68.75 14.0627C68.75 15.4877 68.1953 16.8283 67.1875 17.8346L65.1672 19.8549Z" fill="#A3A2A4"/>
<path d="M57.3547 19.8549L55.1453 17.6455L57.1656 15.6252C57.5766 15.2143 57.8125 14.6439 57.8125 14.0627C57.8125 13.4814 57.5766 12.9111 57.1656 12.5002L56.25 11.5846C55.2422 10.5783 54.6875 9.23769 54.6875 7.8127C54.6875 6.38769 55.2422 5.04707 56.25 4.04082L58.2703 2.02051L60.4797 4.22988L58.4594 6.2502C58.0484 6.66113 57.8125 7.23144 57.8125 7.8127C57.8125 8.39394 58.0484 8.96426 58.4594 9.37519L59.375 10.2908C60.3828 11.2971 60.9375 12.6377 60.9375 14.0627C60.9375 15.4877 60.3828 16.8283 59.375 17.8346L57.3547 19.8549Z" fill="#A3A2A4"/>
<path d="M46.875 35.9375H84.375V39.0625H46.875V35.9375Z" fill="#DAD8DB"/>
<path d="M20.228 3.20781L20.3124 9.39688L23.4374 9.35469L23.353 3.2C22.864 3.16094 22.3733 3.125 21.8749 3.125C21.3187 3.125 20.7718 3.16094 20.228 3.20781Z" fill="#EDF4FF"/>
<path d="M20.3125 40.5469C20.8297 40.5891 21.3469 40.625 21.875 40.625C22.4031 40.625 22.9203 40.5891 23.4375 40.5469V34.375H20.3125V40.5469Z" fill="#EDF4FF"/>
<path d="M3.125 21.875C3.125 22.4031 3.16094 22.9203 3.20312 23.4375H9.375V20.3125H3.20312C3.16094 20.8297 3.125 21.3469 3.125 21.875Z" fill="#EDF4FF"/>
<path d="M34.375 23.4375H40.5469C40.5891 22.9203 40.625 22.4031 40.625 21.875C40.625 21.3469 40.5891 20.8297 40.5469 20.3125H34.375V23.4375Z" fill="#EDF4FF"/>
<path d="M33.9768 7.56445L30.1455 11.3957L32.3549 13.6051L36.1861 9.77383C35.5111 8.97852 34.7721 8.23945 33.9768 7.56445Z" fill="#EDF4FF"/>
<path d="M7.56396 33.9768C8.2374 34.7736 8.97647 35.5127 9.77334 36.1861L13.6046 32.3549L11.3952 30.1455L7.56396 33.9768Z" fill="#EDF4FF"/>
<path d="M7.56396 9.77383L11.3952 13.6051L13.6046 11.3957L9.77334 7.56445C8.97803 8.23945 8.23897 8.97852 7.56396 9.77383Z" fill="#EDF4FF"/>
<path d="M36.1861 33.9768L32.3549 30.1455L30.1455 32.3549L33.9768 36.1861C34.7721 35.5111 35.5111 34.7721 36.1861 33.9768Z" fill="#EDF4FF"/>
<path d="M16.7294 29.2297L14.52 27.0203L20.3122 21.2281V12.5H23.4372V21.875C23.4372 22.2891 23.2731 22.6875 22.9794 22.9797L16.7294 29.2297Z" fill="#EDF4FF"/>
</svg>
