<svg viewBox="0 0 34 34" fill="none" xmlns="http://www.w3.org/2000/svg">
<rect rx="17" fill="#F6C972"/>
<path d="M13.8998 8.92115L17.2462 4.50781L20.5926 8.92115L26.0796 8.16673L25.3252 13.6537L29.7385 17.0001L25.3252 20.3465L26.0796 25.8335L20.5926 25.0791L17.2462 29.4924L13.8998 25.0791L8.41283 25.8335L9.16724 20.3465L4.75391 17.0001L9.16724 13.6537L8.41283 8.16673L13.8998 8.92115Z" fill="#FFE6B4"/>
<path d="M17.2462 25.1251C21.7335 25.1251 25.3712 21.4874 25.3712 17.0001C25.3712 12.5127 21.7335 8.875 17.2462 8.875C12.7588 8.875 9.12109 12.5127 9.12109 17.0001C9.12109 21.4874 12.7588 25.1251 17.2462 25.1251Z" fill="#FFCD69"/>
<path d="M30.0453 16.5954L25.8687 13.4285L26.5827 8.2359C26.6044 8.07848 26.551 7.91999 26.4387 7.80761C26.3263 7.69523 26.1678 7.64181 26.0104 7.66359L20.8178 8.37758L17.6509 4.20099C17.5549 4.0744 17.4051 4 17.2462 4C17.0873 4 16.9376 4.0744 16.8416 4.20099L13.6747 8.37758L8.482 7.66364C8.32452 7.64201 8.16608 7.69533 8.05376 7.80766C7.94138 7.92004 7.88811 8.07853 7.90974 8.23595L8.62368 13.4286L4.44709 16.5954C4.32049 16.6915 4.24609 16.8412 4.24609 17.0001C4.24609 17.159 4.32049 17.3088 4.44709 17.4048L8.62368 20.5717L7.90974 25.7643C7.88811 25.9217 7.94138 26.0802 8.05376 26.1926C8.16608 26.305 8.32457 26.3582 8.482 26.3366L13.6746 25.6226L16.8415 29.7992C16.9376 29.9258 17.0873 30.0002 17.2462 30.0002C17.405 30.0002 17.5548 29.9258 17.6508 29.7992L20.8177 25.6226L26.0104 26.3366C26.1678 26.3582 26.3263 26.305 26.4387 26.1926C26.551 26.0802 26.6043 25.9217 26.5827 25.7643L25.8687 20.5717L30.0453 17.4048C30.1719 17.3088 30.2463 17.159 30.2463 17.0001C30.2463 16.8412 30.1719 16.6915 30.0453 16.5954ZM21.2344 9.34553L25.4853 8.76104L24.9008 13.0119C24.0824 11.4476 22.7987 10.1639 21.2344 9.34553ZM17.2462 5.3483L19.8365 8.76444C19.0184 8.50657 18.1483 8.36722 17.2462 8.36722C16.3441 8.36722 15.474 8.50657 14.6559 8.76444L17.2462 5.3483ZM13.258 9.34553C11.6937 10.1639 10.41 11.4476 9.59163 13.012L9.00718 8.76104L13.258 9.34553ZM5.5944 17.0001L9.01053 14.4098C8.75266 15.2279 8.61332 16.098 8.61332 17.0001C8.61332 17.8905 8.74626 18.7592 9.00525 19.5864L5.5944 17.0001ZM9.59051 20.9959C9.81583 21.4254 10.0787 21.8387 10.3786 22.2318C11.1479 23.2402 12.1388 24.0696 13.256 24.6549L9.00708 25.2392L9.59051 20.9959ZM17.2462 28.6519L14.6574 25.2377C14.7187 25.257 14.7803 25.2758 14.8421 25.2937C15.1115 25.3718 15.3931 25.2165 15.4711 24.9471C15.5491 24.6777 15.3939 24.3961 15.1245 24.3182C11.8888 23.3817 9.62895 20.3724 9.62895 17.0001C9.62895 12.8 13.0461 9.38286 17.2462 9.38286C21.4464 9.38286 24.8635 12.8 24.8635 17.0001C24.8635 20.3726 22.6035 23.3819 19.3676 24.3182C19.0982 24.3961 18.943 24.6777 19.021 24.9471C19.0853 25.1694 19.2882 25.314 19.5085 25.314C19.5552 25.314 19.6028 25.3074 19.6499 25.2938C19.7119 25.2759 19.7735 25.2571 19.835 25.2378L17.2462 28.6519ZM21.2365 24.655C22.3536 24.0697 23.3444 23.2403 24.1137 22.232C24.4136 21.8388 24.6765 21.4256 24.9018 20.9961L25.4853 25.2392L21.2365 24.655ZM25.4872 19.5864C25.7461 18.7592 25.8791 17.8905 25.8791 17.0001C25.8791 16.098 25.7397 15.2279 25.4819 14.4098L28.898 17.0001L25.4872 19.5864Z" fill="black"/>
<path d="M20.9458 18.3552C20.9458 18.0748 20.7184 17.8474 20.438 17.8474C20.1575 17.8474 19.9301 18.0748 19.9301 18.3552C19.9301 19.8355 18.7259 21.0398 17.2456 21.0398C15.7653 21.0398 14.561 19.8355 14.561 18.3552C14.561 18.0748 14.3337 17.8474 14.0532 17.8474C13.7728 17.8474 13.5454 18.0748 13.5454 18.3552C13.5454 20.3955 15.2053 22.0554 17.2456 22.0554C19.2859 22.0554 20.9458 20.3955 20.9458 18.3552Z" fill="black"/>
<path d="M14.7407 15.4468C14.7407 15.7273 14.9681 15.9546 15.2486 15.9546C15.529 15.9546 15.7564 15.7273 15.7564 15.4468C15.7564 14.4947 14.9819 13.7202 14.0298 13.7202C13.0777 13.7202 12.3032 14.4947 12.3032 15.4468C12.3032 15.7273 12.5306 15.9546 12.811 15.9546C13.0915 15.9546 13.3189 15.7273 13.3189 15.4468C13.3189 15.0548 13.6378 14.7358 14.0298 14.7358C14.4218 14.7358 14.7407 15.0548 14.7407 15.4468Z" fill="black"/>
<path d="M19.2432 15.9546C19.5236 15.9546 19.751 15.7273 19.751 15.4468C19.751 15.0548 20.0699 14.7358 20.4619 14.7358C20.854 14.7358 21.1729 15.0548 21.1729 15.4468C21.1729 15.7273 21.4002 15.9546 21.6807 15.9546C21.9611 15.9546 22.1885 15.7273 22.1885 15.4468C22.1885 14.4947 21.414 13.7202 20.4619 13.7202C19.5099 13.7202 18.7354 14.4947 18.7354 15.4468C18.7354 15.7273 18.9627 15.9546 19.2432 15.9546Z" fill="black"/>
<path d="M17.2461 24.6172C17.1125 24.6172 16.9815 24.6715 16.8871 24.766C16.7926 24.8604 16.7383 24.9914 16.7383 25.125C16.7383 25.2586 16.7926 25.3896 16.8871 25.484C16.9815 25.5784 17.1125 25.6328 17.2461 25.6328C17.3797 25.6328 17.5107 25.5785 17.6051 25.484C17.6996 25.3896 17.7539 25.2586 17.7539 25.125C17.7539 24.9914 17.6996 24.8604 17.6051 24.766C17.5107 24.6715 17.3797 24.6172 17.2461 24.6172Z" fill="black"/>
</svg>
