<svg viewBox="0 0 32 32" fill="none" xmlns="http://www.w3.org/2000/svg">
<g clip-path="url(#clip0)">
<path d="M9.71946 7.61706C9.47982 7.50442 9.33487 7.24209 9.38212 6.96859L9.38213 6.96856C9.43888 6.64051 9.75048 6.42023 10.0791 6.47708M9.71946 7.61706L11.257 6.6807M9.71946 7.61706C7.22002 9.43865 5.5918 12.3882 5.5918 15.7116C5.5918 21.2318 10.0826 25.7226 15.6027 25.7226C18.3626 25.7226 20.8651 24.5995 22.6775 22.7872L23.6371 22.6999C23.9688 22.6697 24.2132 22.3764 24.183 22.0447C24.16 21.7908 23.9825 21.588 23.7518 21.5205C24.9235 19.8815 25.6137 17.8755 25.6137 15.7116C25.6137 10.1915 21.1229 5.70068 15.6028 5.70068C14.0546 5.70068 12.5873 6.05428 11.2772 6.6846C11.2706 6.68319 11.2639 6.68188 11.257 6.6807M10.0791 6.47708L10.0578 6.60025L10.0791 6.47707L10.0791 6.47708ZM10.0791 6.47708L11.257 6.6807" fill="#2CD7FF" stroke="black" stroke-width="0.25"/>
<path d="M22.9332 16.3408C26.58 16.3408 29.5363 13.3845 29.5363 9.73765C29.5363 6.09084 26.58 3.13452 22.9332 3.13452C19.2864 3.13452 16.3301 6.09084 16.3301 9.73765C16.3301 13.3845 19.2864 16.3408 22.9332 16.3408Z" fill="#716499" stroke="black" stroke-width="0.25"/>
<path d="M31.3699 9.08727L31.3698 9.08731C29.4649 10.8152 26.496 10.7128 24.709 8.86268C22.8982 6.98787 22.9176 3.99959 24.7681 2.14915L24.7681 2.14915L24.774 2.14325L24.6857 2.0547L24.7741 2.1431L24.7741 2.14316C25.0182 1.89976 24.7843 1.4807 24.4439 1.58057L24.4791 1.70052L24.4439 1.58057C23.4841 1.86219 22.5793 2.38157 21.8226 3.13831C19.3918 5.5691 19.4123 9.5226 21.8833 11.9281C24.2664 14.2482 28.1039 14.2498 30.4889 11.9318L30.4018 11.8422L30.4889 11.9318C31.2803 11.1626 31.8211 10.2342 32.1106 9.24772C32.2072 8.91883 31.8001 8.66376 31.5514 8.91394L31.5513 8.91396C31.4927 8.97293 31.4322 9.03074 31.3699 9.08727Z" fill="#FFCD69" stroke="black" stroke-width="0.25"/>
<path d="M30.7735 11.4464C30.6755 11.5605 30.5729 11.6714 30.4646 11.7797C28.1025 14.1419 24.2734 14.1419 21.9112 11.7797C19.5491 9.41823 19.5491 5.58848 21.9112 3.22636C22.0196 3.11804 22.1305 3.01548 22.2446 2.91748C20.1991 5.29379 20.3036 8.88179 22.5567 11.1349C24.8092 13.3874 28.3972 13.4919 30.7735 11.4464Z" fill="#FFE2A7"/>
<path d="M13.4465 21.2003C13.4577 21.061 13.4636 20.9203 13.4636 20.7782V20.7743C13.4636 17.8421 11.0869 15.4653 8.15519 15.4653C5.22297 15.4653 2.84619 17.8421 2.84619 20.7743C2.84619 22.0732 3.31257 23.2628 4.08649 24.1854L4.08666 24.1856C4.16064 24.2734 4.23716 24.3584 4.31617 24.4414L4.31629 24.4415C5.28236 25.4532 6.64563 26.0833 8.15525 26.0833C10.9436 26.0833 13.2292 23.9331 13.4465 21.2003ZM13.4465 21.2003L13.3219 21.1903L13.4465 21.2002C13.4465 21.2002 13.4465 21.2002 13.4465 21.2003Z" fill="#FFCD69" stroke="black" stroke-width="0.25"/>
<path d="M5.37957 23.4543L5.37951 23.4542C5.13522 23.2011 4.92532 22.915 4.75729 22.6034L4.75724 22.6033C4.4631 22.0588 4.29639 21.4368 4.29639 20.7746C4.29639 18.6434 6.02408 16.9163 8.15532 16.9163C9.93085 16.9163 11.4263 18.1153 11.8755 19.7486C11.963 20.0693 12.0117 20.4066 12.0129 20.755L12.0123 20.755L12.0136 20.767C12.0136 20.7672 12.0136 20.7674 12.0136 20.7677L12.0136 20.7746C12.0136 22.9058 10.2859 24.6329 8.15532 24.6329C7.06463 24.6329 6.08049 24.1814 5.37957 23.4543Z" fill="#FFE2A7" stroke="black" stroke-width="0.25"/>
<path d="M8.50776 14.1111V14.1111C8.5078 14.3061 8.34979 14.4641 8.15476 14.4641C7.95974 14.4641 7.80176 14.3061 7.80176 14.1111V13.0974C7.80176 12.9024 7.95979 12.7444 8.15476 12.7444C8.34977 12.7444 8.50776 12.9024 8.50776 13.0974V14.1111Z" fill="#FFCD69" stroke="black" stroke-width="0.25"/>
<path d="M13.6011 17.5881L13.6011 17.5881C13.5027 17.4198 13.5593 17.2035 13.7276 17.1051L13.7276 17.1051L14.6026 16.5933L14.6026 16.5933C14.7709 16.4948 14.9872 16.5515 15.0856 16.7197L15.0856 16.7198C15.184 16.8881 15.1274 17.1043 14.9591 17.2027L14.9591 17.2027L14.0841 17.7145C14.0841 17.7145 14.0841 17.7145 14.0841 17.7145C14.0279 17.7474 13.9667 17.7629 13.9063 17.7629C13.7846 17.7629 13.6667 17.7002 13.6011 17.5881Z" fill="#FFCD69" stroke="black" stroke-width="0.25"/>
<path d="M1.52885 25.0034C1.40716 25.0034 1.28928 24.9407 1.22368 24.8286L2.22509 23.8338C2.39344 23.7353 2.60962 23.792 2.70808 23.9603C2.80652 24.1285 2.7499 24.3448 2.58161 24.4432C2.5816 24.4432 2.5816 24.4432 2.5816 24.4432L1.70674 24.955C1.65048 24.9879 1.58925 25.0034 1.52885 25.0034ZM1.35015 24.3456L2.22508 23.8338L1.22367 24.8286C1.12523 24.6603 1.18186 24.4441 1.35015 24.3456C1.35015 24.3456 1.35015 24.3456 1.35015 24.3456Z" fill="#FFCD69" stroke="black" stroke-width="0.25"/>
<path d="M11.3104 15.3099L11.3104 15.3099C11.1415 15.2124 11.0837 14.9965 11.1812 14.8277L11.1812 14.8277L11.6881 13.9498C11.7857 13.7809 12.0016 13.7231 12.1704 13.8206L12.1704 13.8206C12.3393 13.9181 12.3971 14.134 12.2996 14.3028L12.2996 14.3028L11.7927 15.1807C11.7273 15.2938 11.6088 15.3573 11.4865 15.3573C11.4267 15.3573 11.3662 15.3421 11.3104 15.3099Z" fill="#FFCD69" stroke="black" stroke-width="0.25"/>
<path d="M15.8315 21.1271H14.8178C14.6228 21.1271 14.4648 20.9691 14.4648 20.7741C14.4648 20.5792 14.6229 20.4211 14.8178 20.4211H15.8315C16.0265 20.4211 16.1845 20.5792 16.1845 20.7741C16.1845 20.9691 16.0265 21.1271 15.8315 21.1271Z" fill="#FFCD69" stroke="black" stroke-width="0.25"/>
<path d="M1.49175 21.1271H0.478C0.282983 21.1271 0.125 20.9691 0.125 20.7741C0.125 20.5792 0.283036 20.4211 0.478 20.4211H1.49169C1.6867 20.4211 1.84469 20.5792 1.84469 20.7741C1.84469 20.9691 1.68669 21.1271 1.49175 21.1271Z" fill="#FFCD69" stroke="black" stroke-width="0.25"/>
<path d="M4.48549 15.2012L4.4855 15.2012C4.5511 15.3134 4.66897 15.3761 4.79066 15.3761C4.85112 15.3761 4.91228 15.3606 4.96842 15.3277L4.9685 15.3277C5.13676 15.2293 5.1934 15.013 5.09495 14.8448L5.09495 14.8447L4.58314 13.9698C4.58314 13.9698 4.58314 13.9697 4.58314 13.9697C4.4847 13.8015 4.26853 13.7449 4.10015 13.8433L4.48549 15.2012ZM4.48549 15.2012L3.97368 14.3263L3.97368 14.3263M4.48549 15.2012L3.97368 14.3263M3.97368 14.3263C3.87524 14.158 3.93185 13.9418 4.10012 13.8433L3.97368 14.3263Z" fill="#FFCD69" stroke="black" stroke-width="0.25"/>
<path d="M1.20123 16.7586L1.20121 16.7586C1.10371 16.9274 1.16151 17.1433 1.33038 17.2409L2.20818 17.7478C2.26404 17.78 2.32461 17.7952 2.38435 17.7952C2.50668 17.7952 2.62515 17.7317 2.69056 17.6186L1.20123 16.7586ZM1.20123 16.7586C1.29869 16.5898 1.51447 16.5319 1.68353 16.6294M1.20123 16.7586L1.68353 16.6294M1.68353 16.6294C1.68355 16.6294 1.68356 16.6294 1.68358 16.6294M1.68353 16.6294L1.68358 16.6294M1.68358 16.6294L2.56139 17.1363L1.68358 16.6294ZM2.56141 17.1363C2.73026 17.2339 2.78806 17.4498 2.69057 17.6185L2.56141 17.1363Z" fill="#FFCD69" stroke="black" stroke-width="0.25"/>
<path d="M3.39872 27.0071L3.39875 27.0068C3.55546 25.426 4.88907 24.1904 6.51114 24.1904C6.82524 24.1904 7.12831 24.2375 7.41423 24.3237C7.49069 24.0421 7.5984 23.7732 7.73379 23.5213C8.38252 22.3109 9.65975 21.4873 11.1296 21.4873C13.2567 21.4873 14.9806 23.2113 14.9806 25.3384C14.9806 25.5128 14.9688 25.6846 14.9465 25.8528C15.853 26.1165 16.5326 26.9135 16.6233 27.8819L16.6233 27.882C16.63 27.9547 16.6334 28.0281 16.6334 28.1026C16.6334 28.3485 16.5952 28.5856 16.5246 28.8083C17.0023 29.0455 17.3784 29.4573 17.5692 29.9601L17.5693 29.9603C17.7293 30.3841 17.4171 30.8391 16.9628 30.8391H0.847454C0.433649 30.8391 0.118324 30.4534 0.215296 30.0465M3.39872 27.0071L0.215296 30.0465M3.39872 27.0071C3.3888 27.1097 3.38345 27.2132 3.38345 27.3187C3.38345 27.5081 3.40084 27.6932 3.43288 27.8726M3.39872 27.0071L3.43288 27.8726M0.215296 30.0465C0.516519 28.7817 1.65313 27.8414 3.01002 27.8414C3.15368 27.8414 3.29486 27.8521 3.43288 27.8726M0.215296 30.0465L3.43288 27.8726" fill="#CAFFFF" stroke="black" stroke-width="0.25"/>
<path d="M16.4526 29.0122L16.3364 28.9727C16.0195 28.8646 15.2148 28.7057 14.3709 29.4822C14.3709 29.4823 14.3709 29.4823 14.3708 29.4823L14.2862 29.3903C14.1944 29.4751 14.0784 29.5165 13.9624 29.5165C13.8336 29.5165 13.7049 29.4649 13.6106 29.3623L16.4526 29.0122ZM16.4526 29.0122L16.4943 28.8969C16.584 28.649 16.6331 28.3816 16.6331 28.1029C16.6331 28.0284 16.6297 27.9551 16.623 27.8822L16.6149 27.7951L16.5304 27.7728C15.8829 27.6022 14.715 27.526 13.554 28.5953M16.4526 29.0122L13.554 28.5953M13.554 28.5953C13.554 28.5953 13.554 28.5953 13.554 28.5953L13.6386 28.6873L13.554 28.5953Z" fill="#7DF6FF" stroke="black" stroke-width="0.25"/>
<path d="M9.3894 26.2931L9.3888 26.2933C9.33795 26.3066 9.28584 26.3139 9.23345 26.3139C8.96702 26.3139 8.72355 26.1355 8.65128 25.8663L8.65125 25.8662C8.55138 25.4927 8.28837 25.189 8.02411 24.967C7.76123 24.7461 7.50886 24.6161 7.45012 24.5874L7.36024 24.5436L7.38323 24.4463C7.46032 24.1201 7.57897 23.8097 7.73385 23.5216L7.78433 23.4277L7.88503 23.4628C7.89858 23.4675 7.91508 23.4735 7.9327 23.4817C7.97862 23.502 8.34979 23.6741 8.75727 24.0078C9.17017 24.3459 9.63014 24.8579 9.81633 25.555L9.3894 26.2931ZM9.3894 26.2931C9.71086 26.2071 9.90231 25.8767 9.81634 25.5551L9.3894 26.2931ZM9.35707 26.1724C9.31563 26.1832 9.2742 26.1889 9.23345 26.1889C9.02245 26.1889 8.82932 26.0474 8.77201 25.8339L9.35707 26.1724Z" fill="#7DF6FF" stroke="black" stroke-width="0.25"/>
<path d="M3.97618 27.1455L4.01609 27.027C3.90681 26.9902 3.72381 26.9294 3.54581 26.8964L3.41171 26.8715L3.39857 27.0072C3.38864 27.1098 3.3833 27.2133 3.3833 27.3188C3.3833 27.5673 3.4132 27.8082 3.46687 28.0387L3.4785 28.0887L3.5219 28.1161C3.5572 28.1384 3.59411 28.1573 3.63165 28.1701L3.63165 28.1701L3.63317 28.1706C3.63292 28.1705 3.6332 28.1707 3.63399 28.1709C3.64769 28.176 3.8151 28.2381 4.01468 28.3682C4.22612 28.5061 4.46347 28.7139 4.59928 29.0014L4.59935 29.0015C4.70238 29.2189 4.91948 29.3464 5.14505 29.3464C5.23125 29.3464 5.31893 29.3279 5.40228 29.2886L5.40246 29.2885C5.7033 29.1462 5.83179 28.7867 5.68967 28.4855L5.68961 28.4853C5.43852 27.9546 5.03034 27.5944 4.68382 27.3661C4.337 27.1376 4.04509 27.0367 4.01575 27.0269L3.97618 27.1455ZM3.97618 27.1455C3.89322 27.1175 3.77266 27.0775 3.64601 27.0462M3.97618 27.1455C4.02205 27.1608 5.10049 27.5324 5.57662 28.5388L3.64601 27.0462M3.64601 27.0462C3.64646 27.0412 3.64693 27.0363 3.64741 27.0313L3.52299 27.0193L3.50016 27.1422C3.50454 27.143 3.50892 27.1438 3.51331 27.1447C3.51002 27.2023 3.5083 27.2602 3.5083 27.3188C3.5083 27.5572 3.53699 27.7886 3.58861 28.0104C3.61793 28.0289 3.64599 28.0429 3.67211 28.0518C3.67974 28.0543 4.41336 28.3151 4.7123 28.948C4.79386 29.12 4.96593 29.2214 5.14505 29.2214C5.21324 29.2214 5.28268 29.2068 5.34899 29.1755L3.64601 27.0462Z" fill="#7DF6FF" stroke="black" stroke-width="0.25"/>
<path d="M12.4033 24.3929C12.4033 24.726 12.6732 24.9959 13.0063 24.9959C13.3394 24.9959 13.6094 24.726 13.6093 24.3929C13.6093 24.3929 13.6093 24.3929 13.6093 24.3929V24.3508C13.6093 24.0178 13.3394 23.7478 13.0063 23.7478C12.6733 23.7478 12.4033 24.0178 12.4033 24.3508V24.3929Z" fill="#7DF6FF" stroke="black" stroke-width="0.25"/>
<path d="M10.9893 23.7331C10.9893 24.0661 11.2592 24.3361 11.5923 24.3361C11.9253 24.3361 12.1953 24.0661 12.1953 23.7331V23.6909C12.1953 23.3579 11.9253 23.0879 11.5923 23.0879C11.2592 23.0879 10.9893 23.3579 10.9893 23.6909V23.7331Z" fill="#7DF6FF" stroke="black" stroke-width="0.25"/>
<path d="M17.3882 10.4543C17.3882 10.7873 17.6581 11.0573 17.9912 11.0573C18.3242 11.0573 18.5942 10.7872 18.5942 10.4543V10.4011C18.5942 10.0681 18.3243 9.7981 17.9912 9.7981C17.6581 9.7981 17.3882 10.0681 17.3882 10.4011V10.4543Z" fill="#FFCD69" stroke="black" stroke-width="0.25"/>
<path d="M24.7798 5.89349C24.7798 6.22652 25.0497 6.49649 25.3828 6.49649C25.7159 6.49649 25.9858 6.22648 25.9858 5.89349C25.9858 5.89348 25.9858 5.89347 25.9858 5.89346V5.8403C25.9858 5.50728 25.7159 5.2373 25.3828 5.2373C25.0497 5.2373 24.7798 5.50727 24.7798 5.8403V5.89349Z" fill="#FFCD69" stroke="black" stroke-width="0.25"/>
<path d="M26.0933 2.61883C26.0933 2.95186 26.3632 3.22183 26.6963 3.22183C27.0293 3.22183 27.2993 2.95187 27.2993 2.61883V2.56565C27.2993 2.23262 27.0294 1.96265 26.6963 1.96265C26.3632 1.96265 26.0933 2.23261 26.0933 2.56565V2.61883Z" fill="#FFCD69" stroke="black" stroke-width="0.25"/>
<path d="M19.5366 1.81708C19.5366 2.1501 19.8065 2.42008 20.1396 2.42008C20.4727 2.42008 20.7427 2.15006 20.7426 1.81708C20.7426 1.81707 20.7426 1.81706 20.7426 1.81705V1.76389C20.7426 1.43086 20.4727 1.16089 20.1396 1.16089C19.8066 1.16089 19.5366 1.43085 19.5366 1.76389V1.81708Z" fill="#FFCD69" stroke="black" stroke-width="0.25"/>
<path d="M28.6919 15.236C28.6919 15.569 28.9618 15.839 29.2949 15.839C29.628 15.839 29.898 15.5691 29.8979 15.236C29.8979 15.236 29.8979 15.236 29.8979 15.236V15.1828C29.8979 14.8498 29.6279 14.5798 29.2949 14.5798C28.9619 14.5798 28.6919 14.8498 28.6919 15.1828V15.236Z" fill="#FFCD69" stroke="black" stroke-width="0.25"/>
<path d="M22.5874 14.592C22.5874 14.925 22.8573 15.195 23.1904 15.195C23.5234 15.195 23.7934 14.925 23.7934 14.592V14.5388C23.7934 14.2058 23.5235 13.9358 23.1904 13.9358C22.8574 13.9358 22.5874 14.2058 22.5874 14.5388V14.592Z" fill="#FFCD69" stroke="black" stroke-width="0.25"/>
</g>
<defs>
<clipPath id="clip0">
<rect width="32" height="32" fill="white"/>
</clipPath>
</defs>
</svg>
