<svg width="16" height="16" viewBox="0 0 16 16" fill="none" xmlns="http://www.w3.org/2000/svg">
<path d="M7.9999 0.399963C3.5887 0.399963 -0.00010057 3.62983 -0.00010057 7.59996C-0.00010057 8.9877 0.438833 10.332 1.27137 11.4944C1.11377 13.2376 0.691366 14.5317 0.0780328 15.1448C-0.0030339 15.2258 -0.0233006 15.3498 0.0278994 15.4522C0.0732328 15.5437 0.166566 15.6 0.266566 15.6C0.278833 15.6 0.291099 15.5992 0.303633 15.5973C0.411633 15.5821 2.92043 15.221 4.7351 14.1736C5.7655 14.5893 6.8631 14.8 7.9999 14.8C12.4111 14.8 15.9999 11.5701 15.9999 7.59996C15.9999 3.62983 12.4111 0.399963 7.9999 0.399963ZM4.26657 8.66663C3.6783 8.66663 3.1999 8.18823 3.1999 7.59996C3.1999 7.0117 3.6783 6.5333 4.26657 6.5333C4.85483 6.5333 5.33323 7.0117 5.33323 7.59996C5.33323 8.18823 4.85483 8.66663 4.26657 8.66663ZM7.9999 8.66663C7.41163 8.66663 6.93323 8.18823 6.93323 7.59996C6.93323 7.0117 7.41163 6.5333 7.9999 6.5333C8.58817 6.5333 9.06657 7.0117 9.06657 7.59996C9.06657 8.18823 8.58817 8.66663 7.9999 8.66663ZM11.7332 8.66663C11.145 8.66663 10.6666 8.18823 10.6666 7.59996C10.6666 7.0117 11.145 6.5333 11.7332 6.5333C12.3215 6.5333 12.7999 7.0117 12.7999 7.59996C12.7999 8.18823 12.3215 8.66663 11.7332 8.66663Z" fill="#B09EFF"/>
</svg>
