<svg width="35" height="35" viewBox="0 0 35 35" xmlns="http://www.w3.org/2000/svg">
<g clip-path="url(#clip0)">
<path d="M11.7954 26.7902C11.7865 26.7464 11.7735 26.7034 11.7564 26.6617C11.7394 26.6207 11.7182 26.581 11.6936 26.5441C11.6689 26.5065 11.6402 26.4716 11.6088 26.4402C11.5773 26.4087 11.5425 26.38 11.5049 26.3554C11.468 26.3308 11.4283 26.3096 11.3866 26.2925C11.3456 26.2754 11.3025 26.2618 11.2588 26.2536C11.1706 26.2358 11.0797 26.2358 10.9922 26.2536C10.9484 26.2618 10.9054 26.2754 10.8637 26.2925C10.8227 26.3096 10.783 26.3308 10.7461 26.3554C10.7085 26.38 10.6736 26.4087 10.6422 26.4402C10.6107 26.4716 10.582 26.5065 10.5574 26.5441C10.5321 26.581 10.5116 26.6207 10.4945 26.6617C10.4774 26.7034 10.4638 26.7464 10.4556 26.7902C10.4467 26.8339 10.4419 26.879 10.4419 26.9235C10.4419 26.9679 10.4467 27.013 10.4556 27.0568C10.4638 27.1005 10.4774 27.1436 10.4945 27.1846C10.5116 27.2263 10.5321 27.266 10.5574 27.3029C10.582 27.3405 10.6107 27.3753 10.6422 27.4068C10.6736 27.4382 10.7085 27.4669 10.7461 27.4915C10.783 27.5162 10.8227 27.5374 10.8637 27.5545C10.9054 27.5716 10.9484 27.5853 10.9922 27.5935C11.0359 27.6024 11.0811 27.6071 11.1255 27.6071C11.1699 27.6071 11.215 27.6024 11.2588 27.5935C11.3025 27.5853 11.3456 27.5716 11.3866 27.5545C11.4283 27.5374 11.468 27.5162 11.5049 27.4915C11.5425 27.4669 11.5773 27.4382 11.6088 27.4068C11.6402 27.3753 11.6689 27.3405 11.6936 27.3029C11.7182 27.266 11.7394 27.2263 11.7564 27.1846C11.7735 27.1436 11.7865 27.1005 11.7954 27.0568C11.8043 27.013 11.8091 26.9679 11.8091 26.9235C11.8091 26.879 11.8043 26.8339 11.7954 26.7902Z" />
<path d="M31.4448 27.0012C31.4422 26.9943 31.4394 26.9876 31.4366 26.9809C30.8074 25.5086 29.3318 24.9645 27.5855 25.5609L22.823 26.8779C22.5477 26.0441 21.8608 25.3345 20.8897 24.9741C20.8837 24.9719 20.8777 24.9697 20.8716 24.9677L15.6366 23.1909C15.2009 22.6277 13.836 21.1865 11.2805 21.1865C9.49464 21.1865 7.91478 22.4117 7.01094 23.7471H0.683594C0.306045 23.7471 0 24.0531 0 24.4307V33.0492C0 33.4267 0.306045 33.7328 0.683594 33.7328H4.74804C5.12559 33.7328 5.43163 33.4267 5.43163 33.0492V32.459H7.3377C7.71524 32.459 8.02129 32.1529 8.02129 31.7754V31.5787C9.1324 31.6756 9.49785 31.8863 10.5183 32.4748C11.3031 32.9273 12.4892 33.6112 14.6251 34.5716C14.6351 34.5761 14.6451 34.5803 14.6552 34.5843C15.0651 34.7455 15.8665 34.9989 16.8545 34.9989C17.5422 34.9989 18.3204 34.876 19.1193 34.5139L29.646 30.7449C29.6648 30.7382 29.6832 30.7307 29.7013 30.7223C30.7073 30.2595 32.2065 28.955 31.4448 27.0012ZM4.06444 32.3655H1.36719V25.1142H4.06444V32.3655ZM6.6541 31.0917H5.43163V25.1142H6.6541V31.0917ZM29.155 29.4684L18.633 33.2358C18.6238 33.239 18.6112 33.244 18.6022 33.2476C18.5929 33.2514 18.5837 33.2554 18.5746 33.2595C17.1092 33.933 15.7162 33.5298 15.1703 33.3176C13.1071 32.3892 12.0059 31.7542 11.2013 31.2902C10.0827 30.6452 9.54365 30.3343 8.02129 30.2086V24.7028C8.66927 23.6408 9.92585 22.5536 11.2806 22.5536C13.6039 22.5536 14.5883 24.0647 14.627 24.1257C14.7105 24.2615 14.8388 24.3638 14.9896 24.415L20.4225 26.2589C21.2902 26.5846 21.7487 27.3277 21.538 28.0687C21.4407 28.4109 21.2159 28.6947 20.9052 28.8679C20.5971 29.0395 20.2409 29.082 19.9015 28.988L13.7769 27.0472C13.4168 26.9331 13.0328 27.1324 12.9188 27.4923C12.8047 27.8522 13.004 28.2364 13.3639 28.3505L19.4991 30.2947C19.5056 30.2968 19.5121 30.2988 19.5187 30.3006C19.7636 30.3703 20.013 30.4047 20.2608 30.4047C20.7146 30.4047 21.1634 30.2891 21.5707 30.0622C22.2005 29.7113 22.6559 29.1361 22.853 28.4426C22.8687 28.3872 22.8827 28.3319 22.8948 28.2765L28.0274 26.8546C28.7687 26.6014 29.7418 26.5101 30.1751 27.508C30.6235 28.6795 29.458 29.3239 29.155 29.4684Z" />
<path d="M24.5451 8.99233C24.5362 8.94858 24.5232 8.90552 24.5055 8.86382C24.4884 8.8228 24.4679 8.78315 24.4426 8.74624C24.418 8.70864 24.3893 8.67378 24.3578 8.64233C24.3264 8.61089 24.2915 8.58218 24.2539 8.55757C24.217 8.53296 24.1773 8.51177 24.1363 8.49468C24.0946 8.47759 24.0516 8.46392 24.0085 8.45571C23.9203 8.43794 23.8294 8.43794 23.7412 8.45571C23.6975 8.46392 23.6544 8.47759 23.6134 8.49468C23.5717 8.51177 23.532 8.53296 23.4951 8.55757C23.4575 8.58218 23.4227 8.61089 23.3912 8.64233C23.3598 8.67378 23.3311 8.70864 23.3064 8.74624C23.2818 8.78315 23.2606 8.8228 23.2436 8.86382C23.2265 8.90552 23.2128 8.94858 23.2046 8.99233C23.1957 9.03608 23.1909 9.0812 23.1909 9.12563C23.1909 9.17007 23.1957 9.21518 23.2046 9.25893C23.2128 9.30268 23.2265 9.34575 23.2436 9.38677C23.2606 9.42847 23.2818 9.46811 23.3064 9.50503C23.3311 9.54263 23.3598 9.57749 23.3912 9.60894C23.4227 9.64038 23.4575 9.66909 23.4951 9.6937C23.532 9.71831 23.5717 9.7395 23.6134 9.75659C23.6544 9.77368 23.6975 9.78667 23.7412 9.79556C23.785 9.80444 23.8301 9.80923 23.8745 9.80923C23.9189 9.80923 23.9641 9.80444 24.0085 9.79556C24.0516 9.78667 24.0946 9.77368 24.1363 9.75659C24.1773 9.7395 24.217 9.71831 24.2539 9.6937C24.2915 9.66909 24.3264 9.64038 24.3578 9.60894C24.3893 9.57749 24.418 9.54263 24.4426 9.50503C24.4679 9.46811 24.4884 9.42847 24.5055 9.38677C24.5232 9.34575 24.5362 9.30268 24.5451 9.25893C24.554 9.21518 24.5581 9.17007 24.5581 9.12563C24.5581 9.0812 24.554 9.03608 24.5451 8.99233Z" />
<path d="M34.3166 2.31615H30.2521C29.8746 2.31615 29.5685 2.6222 29.5685 2.99975V3.58996H27.6625C27.2849 3.58996 26.9789 3.89601 26.9789 4.27356V4.4703C25.8677 4.37329 25.5023 4.16261 24.4819 3.57417C23.6971 3.12163 22.511 2.4377 20.375 1.47732C20.3651 1.47281 20.3551 1.46864 20.3449 1.46467C19.6496 1.1911 17.8274 0.652834 15.8811 1.53488L13.1303 2.5198L10.8117 0.201184C10.5447 -0.0657593 10.1119 -0.0657593 9.84492 0.201184L2.23256 7.81348C1.98633 8.05978 1.93909 8.48682 2.23256 8.78028L15.2405 21.7882C15.4486 21.9964 15.936 22.0594 16.2073 21.7882L23.157 14.8385C23.3377 14.8541 23.5252 14.8625 23.7195 14.8625C25.5055 14.8625 27.0853 13.6374 27.9891 12.302H34.3166C34.6941 12.302 35.0001 11.996 35.0001 11.6184V2.99975C35.0001 2.6222 34.6941 2.31615 34.3166 2.31615ZM10.3282 1.65129L11.8863 3.20934C11.4231 3.49576 10.8877 3.64903 10.3282 3.64903C9.7687 3.64903 9.23331 3.49583 8.77017 3.20934L10.3282 1.65129ZM5.24078 9.85496L3.68273 8.29685L5.24078 6.7388C5.52721 7.20194 5.68047 7.7374 5.68047 8.29685C5.68047 8.8563 5.52727 9.39176 5.24078 9.85496ZM15.7239 20.338L14.1661 18.7802C15.1172 18.1933 16.3304 18.1933 17.2816 18.7802L15.7239 20.338ZM18.2665 17.7955C16.7559 16.6996 14.6919 16.6996 13.1813 17.7955L6.22563 10.8397C6.75945 10.1056 7.04766 9.22366 7.04766 8.29685C7.04766 7.36996 6.75952 6.48813 6.22563 5.75395L7.78539 4.19426C8.51957 4.72808 9.40141 5.01628 10.3283 5.01628C11.2552 5.01628 12.137 4.72808 12.8712 4.19426L14.3497 5.67281C14.0307 5.71991 13.7196 5.82504 13.4295 5.98671C12.9395 6.25974 12.555 6.6686 12.3156 7.16324C11.5445 7.30605 10.8307 7.67936 10.2707 8.23929C8.75138 9.75865 8.75138 12.2307 10.2707 13.7501C11.0303 14.5097 12.0282 14.8896 13.0261 14.8896C14.0239 14.8896 15.0218 14.5098 15.7815 13.7501C16.2758 13.2558 16.622 12.6484 16.7954 11.9864L19.1035 12.7697C18.8437 13.9734 19.1098 15.2397 19.8276 16.2343L18.2665 17.7955ZM14.1104 11.0748C14.1164 11.077 14.1224 11.0792 14.1285 11.0813L15.4954 11.5452C15.3922 12.0111 15.1586 12.4394 14.8148 12.7833C13.8285 13.7695 12.2237 13.7696 11.2375 12.7833C10.2512 11.7971 10.2512 10.1924 11.2375 9.2061C11.4754 8.96807 11.7562 8.78206 12.0621 8.65594C12.1883 9.70608 12.9444 10.6421 14.1104 11.0748ZM20.8126 15.2493C20.5488 14.8193 20.3995 14.3285 20.3759 13.8277C20.7033 14.0644 21.1035 14.2963 21.5815 14.4804L20.8126 15.2493ZM26.9788 11.3459C26.3309 12.408 25.0743 13.4952 23.7195 13.4952C23.4661 13.4952 23.2285 13.4771 23.0064 13.445C23.0055 13.4449 23.0046 13.4447 23.0038 13.4446C21.5275 13.2301 20.7333 12.3911 20.4716 12.0589C20.4576 12.0384 20.3982 11.9606 20.3894 11.9477C20.3098 11.8054 20.1792 11.691 20.0127 11.6344L14.5776 9.78975C13.7102 9.46422 13.2517 8.7215 13.4619 7.98075C13.462 7.98028 13.4622 7.9798 13.4623 7.97932C13.4625 7.97877 13.4626 7.97816 13.4628 7.97761C13.5605 7.6365 13.7848 7.35356 14.0949 7.18081C14.4029 7.00916 14.759 6.96657 15.0986 7.06071L21.2231 9.0015C21.5831 9.11572 21.9673 8.91625 22.0813 8.55634C22.1953 8.19643 21.9961 7.81225 21.6362 7.69816L16.7652 6.1546L16.7227 6.11208C16.7223 6.11167 16.7219 6.11119 16.7214 6.11078L14.1996 3.58901L16.3672 2.81285C16.3745 2.81019 16.3835 2.80684 16.3907 2.8039C16.3926 2.80315 16.3961 2.80178 16.3979 2.80103C16.4072 2.79727 16.4164 2.7933 16.4255 2.78913C17.8908 2.11566 19.2837 2.51877 19.8297 2.7311C21.893 3.65948 22.9943 4.29448 23.7988 4.75843C24.9175 5.40354 25.4565 5.71437 26.9788 5.84008V11.3459ZM29.5685 10.9347H28.346V4.95715H29.5685V10.9347ZM33.633 10.9347H30.9357V3.68334H33.633V10.9347Z" />
</g>
<defs>
<clipPath id="clip0">
<rect width="35" height="35" />
</clipPath>
</defs>
</svg>
