<svg width="370" height="188" viewBox="0 0 370 188" fill="none" xmlns="http://www.w3.org/2000/svg">
<g filter="url(#filter0_f)">
<path d="M13.8751 49.2373C12.8634 46.665 11.4542 43.5854 12.7911 40.8681C15.754 34.8538 21.6437 38.5856 25.004 41.6651C24.6788 41.3753 33.0978 32.3539 36.6388 40.1072C40.4689 48.5489 28.1837 58.8746 22.6192 63.0049C19.1144 59.2369 15.7179 54.056 13.8751 49.2373Z" fill="url(#paint0_linear)"/>
<path d="M78.878 49.2373C77.8663 46.6649 76.4571 43.5854 77.794 40.8681C80.7569 34.8538 86.6466 38.5856 90.0069 41.6651C89.6817 41.3753 98.1007 32.3539 101.642 40.1072C105.508 48.5127 93.2228 58.8384 87.6222 62.9687C84.1173 59.2369 80.7569 54.056 78.878 49.2373Z" fill="url(#paint1_linear)"/>
<path d="M143.917 49.2373C142.905 46.6649 141.496 43.5854 142.833 40.8681C145.796 34.8538 151.686 38.5856 155.046 41.6651C154.721 41.3753 163.14 32.3539 166.681 40.1072C170.547 48.5127 158.262 58.8384 152.661 62.9687C149.156 59.2369 145.76 54.056 143.917 49.2373Z" fill="url(#paint2_linear)"/>
<path d="M13.8751 97.1339C12.8634 94.5616 11.4542 91.482 12.7911 88.7647C15.754 82.7504 21.6437 86.4822 25.004 89.5618C24.6788 89.2719 33.0978 80.2505 36.6388 88.0038C40.4689 96.4456 28.1837 106.771 22.6192 110.865C19.1144 107.097 15.7179 101.916 13.8751 97.1339Z" fill="url(#paint3_linear)"/>
<path d="M78.878 97.1339C77.8663 94.5616 76.4571 91.482 77.794 88.7647C80.7569 82.7504 86.6466 86.4822 90.0069 89.5618C89.6817 89.2719 98.1007 80.2505 101.642 88.0038C105.508 96.4093 93.2228 106.735 87.6222 110.865C84.1173 107.097 80.7569 101.916 78.878 97.1339Z" fill="url(#paint4_linear)"/>
<path d="M143.917 97.1339C142.905 94.5616 141.496 91.482 142.833 88.7647C145.796 82.7504 151.686 86.4822 155.046 89.5618C154.721 89.2719 163.14 80.2505 166.681 88.0038C170.547 96.4093 158.262 106.735 152.661 110.865C149.156 107.097 145.76 101.916 143.917 97.1339Z" fill="url(#paint5_linear)"/>
<path d="M13.8751 144.994C12.8634 142.422 11.4542 139.342 12.7911 136.625C15.754 130.611 21.6437 134.343 25.004 137.422C24.6788 137.132 33.0978 128.111 36.6388 135.864C40.505 144.27 28.2198 154.595 22.6192 158.726C19.1144 154.994 15.7179 149.813 13.8751 144.994Z" fill="url(#paint6_linear)"/>
<path d="M78.878 144.994C77.8663 142.422 76.4571 139.342 77.794 136.625C80.7569 130.611 86.6466 134.343 90.0069 137.422C89.6817 137.132 98.1007 128.111 101.642 135.864C105.508 144.27 93.2228 154.595 87.6222 158.726C84.1173 154.994 80.7569 149.813 78.878 144.994Z" fill="url(#paint7_linear)"/>
<path d="M143.917 144.994C142.905 142.422 141.496 139.342 142.833 136.625C145.796 130.611 151.686 134.343 155.046 137.422C154.721 137.132 163.14 128.111 166.681 135.864C170.547 144.27 158.262 154.595 152.661 158.726C149.156 154.994 145.76 149.813 143.917 144.994Z" fill="url(#paint8_linear)"/>
<path d="M206.897 49.2373C205.885 46.6649 204.476 43.5854 205.813 40.8681C208.775 34.8538 214.665 38.5856 218.026 41.6651C217.7 41.3753 226.119 32.3539 229.66 40.1072C233.526 48.5127 221.241 58.8384 215.641 62.9687C212.136 59.2369 208.775 54.056 206.897 49.2373Z" fill="url(#paint9_linear)"/>
<path d="M271.936 49.2373C270.924 46.6649 269.515 43.5854 270.852 40.8681C273.815 34.8538 279.704 38.5856 283.065 41.6651C282.739 41.3753 291.158 32.3539 294.699 40.1072C298.566 48.5127 286.28 58.8384 280.68 62.9687C277.175 59.2369 273.778 54.056 271.936 49.2373Z" fill="url(#paint10_linear)"/>
<path d="M336.939 49.2373C335.927 46.6649 334.518 43.5854 335.855 40.8681C338.817 34.8538 344.707 38.5856 348.067 41.6651C347.742 41.3753 356.161 32.3539 359.702 40.1072C363.568 48.5127 351.283 58.8384 345.683 62.9687C342.214 59.2369 338.817 54.056 336.939 49.2373Z" fill="url(#paint11_linear)"/>
<path d="M206.897 97.1339C205.885 94.5616 204.476 91.482 205.813 88.7647C208.775 82.7504 214.665 86.4822 218.026 89.5618C217.7 89.2719 226.119 80.2505 229.66 88.0038C233.526 96.4093 221.241 106.735 215.641 110.865C212.136 107.097 208.775 101.916 206.897 97.1339Z" fill="url(#paint12_linear)"/>
<path d="M271.936 97.1339C270.924 94.5616 269.515 91.482 270.852 88.7647C273.815 82.7504 279.704 86.4822 283.065 89.5618C282.739 89.2719 291.158 80.2505 294.699 88.0038C298.566 96.4093 286.28 106.735 280.68 110.865C277.175 107.097 273.778 101.916 271.936 97.1339Z" fill="url(#paint13_linear)"/>
<path d="M336.939 97.1339C335.927 94.5616 334.518 91.482 335.855 88.7647C338.817 82.7504 344.707 86.4822 348.067 89.5618C347.742 89.2719 356.161 80.2505 359.702 88.0038C363.568 96.4093 351.283 106.735 345.683 110.865C342.214 107.097 338.817 101.916 336.939 97.1339Z" fill="url(#paint14_linear)"/>
<path d="M206.897 144.994C205.885 142.422 204.476 139.342 205.813 136.625C208.775 130.611 214.665 134.343 218.026 137.422C217.7 137.132 226.119 128.111 229.66 135.864C233.526 144.27 221.241 154.595 215.641 158.726C212.136 154.994 208.775 149.813 206.897 144.994Z" fill="url(#paint15_linear)"/>
<path d="M271.936 144.994C270.924 142.422 269.515 139.342 270.852 136.625C273.815 130.611 279.704 134.343 283.065 137.422C282.739 137.132 291.158 128.111 294.699 135.864C298.566 144.27 286.28 154.595 280.68 158.726C277.175 154.994 273.778 149.813 271.936 144.994Z" fill="url(#paint16_linear)"/>
<path d="M336.939 144.994C335.927 142.422 334.518 139.342 335.855 136.625C338.817 130.611 344.707 134.343 348.067 137.422C347.742 137.132 356.161 128.111 359.702 135.864C363.568 144.27 351.283 154.595 345.683 158.726C342.214 154.994 338.817 149.813 336.939 144.994Z" fill="url(#paint17_linear)"/>
</g>
<defs>
<filter id="filter0_f" x="-4" y="-4" width="378" height="196" filterUnits="userSpaceOnUse" color-interpolation-filters="sRGB">
<feFlood flood-opacity="0" result="BackgroundImageFix"/>
<feBlend mode="normal" in="SourceGraphic" in2="BackgroundImageFix" result="shape"/>
<feGaussianBlur stdDeviation="2" result="effect1_foregroundBlur"/>
</filter>
<linearGradient id="paint0_linear" x1="37.3657" y1="49.9873" x2="12.2441" y2="49.9873" gradientUnits="userSpaceOnUse">
<stop stop-color="#EFA088"/>
<stop offset="1" stop-color="#E98061"/>
</linearGradient>
<linearGradient id="paint1_linear" x1="102.381" y1="49.9692" x2="77.2471" y2="49.9692" gradientUnits="userSpaceOnUse">
<stop stop-color="#EFA088"/>
<stop offset="1" stop-color="#E98061"/>
</linearGradient>
<linearGradient id="paint2_linear" x1="167.42" y1="49.9692" x2="142.286" y2="49.9692" gradientUnits="userSpaceOnUse">
<stop stop-color="#EFA088"/>
<stop offset="1" stop-color="#E98061"/>
</linearGradient>
<linearGradient id="paint3_linear" x1="37.3657" y1="97.8658" x2="12.2441" y2="97.8658" gradientUnits="userSpaceOnUse">
<stop stop-color="#EFA088"/>
<stop offset="1" stop-color="#E98061"/>
</linearGradient>
<linearGradient id="paint4_linear" x1="102.381" y1="97.8658" x2="77.2471" y2="97.8658" gradientUnits="userSpaceOnUse">
<stop stop-color="#EFA088"/>
<stop offset="1" stop-color="#E98061"/>
</linearGradient>
<linearGradient id="paint5_linear" x1="167.42" y1="97.8658" x2="142.286" y2="97.8658" gradientUnits="userSpaceOnUse">
<stop stop-color="#EFA088"/>
<stop offset="1" stop-color="#E98061"/>
</linearGradient>
<linearGradient id="paint6_linear" x1="37.378" y1="145.726" x2="12.2441" y2="145.726" gradientUnits="userSpaceOnUse">
<stop stop-color="#EFA088"/>
<stop offset="1" stop-color="#E98061"/>
</linearGradient>
<linearGradient id="paint7_linear" x1="102.381" y1="145.726" x2="77.2471" y2="145.726" gradientUnits="userSpaceOnUse">
<stop stop-color="#EFA088"/>
<stop offset="1" stop-color="#E98061"/>
</linearGradient>
<linearGradient id="paint8_linear" x1="167.42" y1="145.726" x2="142.286" y2="145.726" gradientUnits="userSpaceOnUse">
<stop stop-color="#EFA088"/>
<stop offset="1" stop-color="#E98061"/>
</linearGradient>
<linearGradient id="paint9_linear" x1="230.4" y1="49.9692" x2="205.266" y2="49.9692" gradientUnits="userSpaceOnUse">
<stop stop-color="#EFA088"/>
<stop offset="1" stop-color="#E98061"/>
</linearGradient>
<linearGradient id="paint10_linear" x1="295.439" y1="49.9692" x2="270.305" y2="49.9692" gradientUnits="userSpaceOnUse">
<stop stop-color="#EFA088"/>
<stop offset="1" stop-color="#E98061"/>
</linearGradient>
<linearGradient id="paint11_linear" x1="360.442" y1="49.9692" x2="335.308" y2="49.9692" gradientUnits="userSpaceOnUse">
<stop stop-color="#EFA088"/>
<stop offset="1" stop-color="#E98061"/>
</linearGradient>
<linearGradient id="paint12_linear" x1="230.4" y1="97.8658" x2="205.266" y2="97.8658" gradientUnits="userSpaceOnUse">
<stop stop-color="#EFA088"/>
<stop offset="1" stop-color="#E98061"/>
</linearGradient>
<linearGradient id="paint13_linear" x1="295.439" y1="97.8658" x2="270.305" y2="97.8658" gradientUnits="userSpaceOnUse">
<stop stop-color="#EFA088"/>
<stop offset="1" stop-color="#E98061"/>
</linearGradient>
<linearGradient id="paint14_linear" x1="360.442" y1="97.8658" x2="335.308" y2="97.8658" gradientUnits="userSpaceOnUse">
<stop stop-color="#EFA088"/>
<stop offset="1" stop-color="#E98061"/>
</linearGradient>
<linearGradient id="paint15_linear" x1="230.4" y1="145.726" x2="205.266" y2="145.726" gradientUnits="userSpaceOnUse">
<stop stop-color="#EFA088"/>
<stop offset="1" stop-color="#E98061"/>
</linearGradient>
<linearGradient id="paint16_linear" x1="295.439" y1="145.726" x2="270.305" y2="145.726" gradientUnits="userSpaceOnUse">
<stop stop-color="#EFA088"/>
<stop offset="1" stop-color="#E98061"/>
</linearGradient>
<linearGradient id="paint17_linear" x1="360.442" y1="145.726" x2="335.308" y2="145.726" gradientUnits="userSpaceOnUse">
<stop stop-color="#EFA088"/>
<stop offset="1" stop-color="#E98061"/>
</linearGradient>
</defs>
</svg>
