<svg viewBox="0 0 22 24" xmlns="http://www.w3.org/2000/svg">
<path fill-rule="evenodd" clip-rule="evenodd" d="M3.12256 10.3178C3.12256 5.71789 6.55182 2 10.6999 2C14.8596 2 18.2889 5.71789 18.2889 10.3178C18.2889 12.6357 17.5368 14.7876 16.2989 16.6116C14.9334 18.6235 13.2502 20.3765 11.3557 21.7524C10.9221 22.0704 10.5307 22.0944 10.0548 21.7524C8.1495 20.3765 6.46636 18.6235 5.11247 16.6116C3.87372 14.7876 3.12256 12.6357 3.12256 10.3178ZM8.20257 10.5768C8.20257 12.1177 9.32436 13.3297 10.6998 13.3297C12.0762 13.3297 13.2088 12.1177 13.2088 10.5768C13.2088 9.0478 12.0762 7.77683 10.6998 7.77683C9.32436 7.77683 8.20257 9.0478 8.20257 10.5768Z" />
</svg>
