<svg width="14" height="18" viewBox="0 0 14 18" xmlns="http://www.w3.org/2000/svg">
<path d="M11.1659 6.50008V4.83342C11.1659 3.72835 10.7269 2.66854 9.94546 1.88714C9.16406 1.10573 8.10425 0.666748 6.99919 0.666748C5.89412 0.666748 4.83431 1.10573 4.05291 1.88714C3.27151 2.66854 2.83252 3.72835 2.83252 4.83342V6.50008C2.16948 6.50008 1.53359 6.76347 1.06475 7.23231C0.595912 7.70116 0.33252 8.33704 0.33252 9.00008V14.8334C0.33252 15.4965 0.595912 16.1323 1.06475 16.6012C1.53359 17.07 2.16948 17.3334 2.83252 17.3334H11.1659C11.8289 17.3334 12.4648 17.07 12.9336 16.6012C13.4025 16.1323 13.6659 15.4965 13.6659 14.8334V9.00008C13.6659 8.33704 13.4025 7.70116 12.9336 7.23231C12.4648 6.76347 11.8289 6.50008 11.1659 6.50008ZM4.49919 4.83342C4.49919 4.17037 4.76258 3.53449 5.23142 3.06565C5.70026 2.59681 6.33614 2.33341 6.99919 2.33341C7.66223 2.33341 8.29811 2.59681 8.76695 3.06565C9.23579 3.53449 9.49919 4.17037 9.49919 4.83342V6.50008H4.49919V4.83342ZM11.9992 14.8334C11.9992 15.0544 11.9114 15.2664 11.7551 15.4227C11.5988 15.579 11.3869 15.6667 11.1659 15.6667H2.83252C2.61151 15.6667 2.39954 15.579 2.24326 15.4227C2.08698 15.2664 1.99919 15.0544 1.99919 14.8334V9.00008C1.99919 8.77907 2.08698 8.56711 2.24326 8.41083C2.39954 8.25455 2.61151 8.16675 2.83252 8.16675H11.1659C11.3869 8.16675 11.5988 8.25455 11.7551 8.41083C11.9114 8.56711 11.9992 8.77907 11.9992 9.00008V14.8334Z" />
</svg>
