<svg width="200" height="24" viewBox="0 0 200 24" fill="none" xmlns="http://www.w3.org/2000/svg">
<path d="M25.6606 23.9807C25.5621 23.9807 25.5227 23.9227 25.5227 23.8068L25.5818 0.135266C25.5818 0.0386475 25.6212 0 25.7196 0H30.0126C30.1111 0 30.1898 0.0386475 30.2489 0.135266L33.4391 4.67633L36.649 0.135266C36.7278 0.0386475 36.8065 0 36.8853 0H41.198C41.2965 0 41.3358 0.0386475 41.3358 0.135266L41.4146 23.8068C41.4146 23.9227 41.3752 23.9807 41.2768 23.9807H37.2989C37.2004 23.9807 37.161 23.9227 37.161 23.8068L37.1216 6.22222L33.4391 11.4589L29.796 6.22222L29.7566 23.8068C29.7566 23.9227 29.7172 23.9807 29.6188 23.9807H25.6606Z" fill="#E46039"/>
<path d="M43.187 23.8068L47.5391 0.135266C47.5588 0.0386475 47.6178 0 47.7163 0H52.8167C52.9151 0 52.9742 0.0386475 52.9939 0.135266L57.1687 23.8068C57.1884 23.9227 57.149 23.9807 57.0309 23.9807H53.1318C53.0333 23.9807 52.9742 23.9227 52.9545 23.8068L52.5607 21.2947H47.7754L47.3815 23.8068C47.3618 23.9227 47.3028 23.9807 47.2043 23.9807H43.3052C43.2264 23.9807 43.187 23.9227 43.187 23.8068ZM48.4843 17.6039H51.8517L50.4142 7.92271L50.1976 6.64734L50.0597 7.92271L48.4843 17.6039Z" fill="#E46039"/>
<path d="M59.5121 23.9807C59.4137 23.9807 59.3743 23.9227 59.3743 23.8068L59.4333 0.135266C59.4333 0.0386475 59.4727 0 59.5712 0H66.6605C67.9208 0 69.0827 0.309179 70.1461 0.908213C71.2095 1.52657 72.0563 2.33816 72.6864 3.36232C73.3166 4.38647 73.6317 5.54589 73.6317 6.82126C73.6317 7.6715 73.4938 8.44444 73.2378 9.12077C72.9818 9.7971 72.6668 10.3768 72.332 10.8406C71.9775 11.3043 71.6624 11.6715 71.3867 11.8841C72.6471 13.256 73.2772 14.8792 73.2772 16.7343L73.3166 23.8068C73.3166 23.9227 73.2575 23.9807 73.1394 23.9807H69.1615C69.063 23.9807 69.0236 23.942 69.0236 23.8841V16.7536C69.0236 15.9227 68.7282 15.2077 68.1375 14.6087C67.5467 14.0097 66.8181 13.7005 65.9516 13.7005H63.6279L63.5885 23.8261C63.5885 23.942 63.5491 24 63.4506 24H59.5121V23.9807ZM63.6476 9.54589H66.6802C67.4088 9.54589 68.0587 9.27536 68.6101 8.75362C69.1812 8.23188 69.4569 7.57488 69.4569 6.82126C69.4569 6.08696 69.1812 5.44928 68.6298 4.92754C68.0784 4.4058 67.4285 4.13527 66.6802 4.13527H63.6673V9.54589H63.6476Z" fill="#E46039"/>
<path d="M78.5154 23.9807C78.4366 23.9807 78.417 23.942 78.417 23.8454L78.4563 14.0483L73.7301 0.135266C73.7104 0.0386475 73.7498 0 73.8286 0H77.7277C77.8459 0 77.9246 0.0386475 77.9443 0.135266L80.5437 9.41063L83.1825 0.135266C83.2022 0.0386475 83.2613 0 83.3598 0H87.2983C87.3968 0 87.4361 0.0386475 87.3968 0.135266L82.6509 13.913L82.6902 23.8454C82.6902 23.942 82.6509 23.9807 82.5524 23.9807H78.5154Z" fill="#E46039"/>
<path d="M94.6632 23.9807C94.5648 23.9807 94.5254 23.9227 94.5254 23.8068L94.6042 0.135266C94.6042 0.0386475 94.6435 0 94.742 0H101.477C102.816 0 103.998 0.309179 105.061 0.94686C106.105 1.58454 106.951 2.41546 107.562 3.43961C108.172 4.48309 108.468 5.60386 108.468 6.82126C108.468 7.80676 108.231 8.7343 107.778 9.58454C107.326 10.4348 106.774 11.1304 106.144 11.6522C106.814 12.3092 107.345 13.0821 107.719 13.9517C108.094 14.8213 108.29 15.7488 108.29 16.715C108.29 18.0483 107.956 19.2657 107.306 20.3671C106.656 21.4686 105.77 22.3575 104.647 22.9952C103.545 23.6522 102.304 23.9807 100.945 23.9807H94.6632ZM98.779 19.7874H100.945C101.792 19.7874 102.521 19.4783 103.131 18.8792C103.742 18.2802 104.037 17.5459 104.037 16.7343C104.037 15.9227 103.742 15.1884 103.131 14.5894C102.521 13.9903 101.792 13.7005 100.945 13.7005H98.7987L98.779 19.7874ZM98.8184 9.50725H101.497C102.324 9.50725 102.974 9.21739 103.486 8.65701C103.998 8.09662 104.234 7.47826 104.234 6.82126C104.234 6.08696 103.958 5.44928 103.426 4.90821C102.895 4.36715 102.245 4.09662 101.497 4.09662H98.8184V9.50725Z" fill="#7A4694"/>
<path d="M108.921 23.8068L113.273 0.135266C113.292 0.0386475 113.351 0 113.45 0H118.55C118.649 0 118.708 0.0386475 118.728 0.135266L122.902 23.8068C122.922 23.9227 122.883 23.9807 122.765 23.9807H118.865C118.767 23.9807 118.708 23.9227 118.688 23.8068L118.294 21.2947H113.509L113.115 23.8068C113.095 23.9227 113.036 23.9807 112.938 23.9807H109.039C108.98 23.9807 108.921 23.9227 108.921 23.8068ZM114.238 17.6039H117.605L116.168 7.92271L115.951 6.64734L115.813 7.92271L114.238 17.6039Z" fill="#7A4694"/>
<path d="M125.266 23.9807C125.167 23.9807 125.128 23.9227 125.128 23.8068L125.167 0.173913C125.167 0.0579713 125.226 0 125.344 0H129.243C129.362 0 129.421 0.0579713 129.421 0.173913L129.381 19.7488H136.608C136.727 19.7488 136.786 19.8068 136.786 19.9227V23.8261C136.786 23.942 136.727 24 136.608 24H125.266V23.9807Z" fill="#7A4694"/>
<path d="M139.208 23.9807C139.109 23.9807 139.07 23.9227 139.07 23.8068L139.109 0.173913C139.109 0.0579713 139.169 0 139.287 0H143.186C143.304 0 143.363 0.0579713 143.363 0.173913L143.324 19.7488H150.551C150.669 19.7488 150.728 19.8068 150.728 19.9227V23.8261C150.728 23.942 150.669 24 150.551 24H139.208V23.9807Z" fill="#7A4694"/>
<path d="M153.15 23.9807C153.052 23.9807 153.012 23.9227 153.012 23.8068L153.032 0.135266C153.032 0.0386475 153.072 0 153.17 0H164.454C164.552 0 164.592 0.0579713 164.592 0.173913V4.03865C164.592 4.13527 164.552 4.17391 164.454 4.17391H157.246V9.54589H164.454C164.552 9.54589 164.592 9.58454 164.592 9.68116L164.631 13.5845C164.631 13.6812 164.592 13.7198 164.493 13.7198H157.266V19.7488H164.493C164.592 19.7488 164.631 19.8068 164.631 19.9227V23.8454C164.631 23.942 164.592 23.9807 164.493 23.9807H153.15Z" fill="#7A4694"/>
<path d="M171.268 23.9807C171.169 23.9807 171.13 23.9227 171.13 23.8068V4.17391H166.561C166.443 4.17391 166.384 4.11594 166.384 4L166.423 0.135266C166.423 0.0386475 166.463 0 166.561 0H179.913C180.031 0 180.09 0.0386475 180.09 0.135266V4C180.09 4.11594 180.05 4.17391 179.952 4.17391H175.344L175.383 23.8261C175.383 23.942 175.344 24 175.245 24H171.268V23.9807Z" fill="#7A4694"/>
<path d="M188.243 10.7246C187.73 9.46857 187.022 7.96132 187.691 6.64731C189.168 3.69079 192.102 5.52654 193.796 7.03379C193.638 6.89852 197.833 2.4734 199.625 6.26084C201.574 10.3768 195.43 15.4396 192.634 17.4492C190.862 15.6135 189.168 13.0628 188.243 10.7246Z" fill="#E46039"/>
<path d="M11.7576 10.7246C12.2696 9.46857 12.9785 7.96132 12.309 6.64731C10.832 3.69079 7.89785 5.52654 6.20429 7.03379C6.36183 6.89852 2.16731 2.4734 0.375288 6.26084C-1.57428 10.3768 4.56981 15.4396 7.36615 17.4492C9.11879 15.6135 10.832 13.0628 11.7576 10.7246Z" fill="white"/>
<path d="M11.7576 10.7246C12.2696 9.46857 12.9785 7.96132 12.309 6.64731C10.832 3.69079 7.89785 5.52654 6.20429 7.03379C6.36183 6.89852 2.16731 2.4734 0.375288 6.26084C-1.57428 10.3768 4.56981 15.4396 7.36615 17.4492C9.11879 15.6135 10.832 13.0628 11.7576 10.7246Z" fill="#E46039"/>
</svg>
