<svg viewBox="0 0 50 50" fill="none" xmlns="http://www.w3.org/2000/svg">
<g clip-path="url(#clip0)">
<path fill-rule="evenodd" clip-rule="evenodd" d="M34.199 19.4333C36.8963 19.4424 39.5844 19.4333 42.2817 19.4333C43.357 19.4333 44.5326 19.4698 45.544 19.6065C48.0954 19.9435 49.2801 22.0846 49.189 23.9706C49.107 25.5102 48.3233 27.1228 46.0634 27.7424C45.3709 27.9337 44.6874 28.0157 44.0496 28.0704C43.9676 28.0795 43.8309 28.0886 43.7853 28.0977C43.8309 28.0977 43.9676 28.1068 44.0678 28.1068C44.6327 28.1159 45.2069 28.1523 45.7627 28.2435C48.141 28.6352 50.2096 29.9017 49.9818 32.7624C49.8542 34.3112 48.9794 35.851 46.7742 36.6528C45.5258 37.1083 44.1771 37.2176 42.8741 37.2085L33.2877 37.1721V36.9078L35.0374 36.9169V25.7107C35.7572 25.3189 36.4954 24.8634 37.0512 24.4534C37.2243 23.9706 37.2426 23.105 37.042 22.4855C36.9965 22.2941 36.8325 22.1757 36.5592 22.1119C36.9601 21.456 37.2335 20.9367 37.2972 20.6906C37.2972 20.4902 36.9509 20.2898 36.1126 20.1987C35.7846 20.1805 35.4383 20.2169 35.0282 20.3262V19.6702H34.199V19.4333ZM35.0282 25.2643C35.6205 24.8998 36.2311 24.4717 36.468 24.1618C36.2858 23.925 35.9395 23.8156 35.4748 23.8156C35.3289 24.0343 35.1831 24.2621 35.0282 24.4899V25.2643ZM35.0282 22.2122C35.4656 22.1119 35.8392 22.0664 36.1399 22.0664C36.2676 21.875 36.3587 21.7111 36.386 21.6108C36.2493 21.2646 35.493 21.219 35.0282 21.3101V22.2122ZM41.9993 28.2526L39.5936 28.2253V36.9443L42.1906 36.9534C42.8559 36.9534 43.1565 36.9899 43.7488 36.5889C44.1315 36.3248 44.4505 35.9512 44.6965 35.5139C45.1613 34.6757 45.38 33.5733 45.3435 32.4891C45.2706 30.3481 44.25 28.2526 41.9993 28.2526ZM41.7259 19.6794H39.5844V27.9884L41.9993 28.0066C42.4093 28.0066 42.8103 27.9064 43.1839 27.7424C44.9426 26.968 45.2159 24.8543 44.979 22.6859C44.7968 21.055 43.5757 19.7705 41.7259 19.6794Z" fill="#FFBCA1"/>
<path fill-rule="evenodd" clip-rule="evenodd" d="M26.4808 49.9353C26.253 50.0264 26.016 50.0172 25.7609 49.9261C25.7609 49.9261 25.7244 49.5617 25.7244 49.4068C25.7244 49.2519 25.8429 48.5322 25.8064 48.2952C25.7609 48.0493 25.7336 47.6575 25.3964 47.0653C25.0592 46.4731 24.7586 46.0267 24.713 45.7807C24.6674 45.5256 24.5398 45.2067 24.795 45.0427C25.0501 44.8787 25.524 44.6783 25.6515 44.8514C25.6515 44.8605 25.6789 44.9152 25.7062 45.0063C25.8156 45.3343 26.0434 46.0541 26.098 45.9265C26.098 45.9265 26.1254 45.3343 26.098 45.0245C26.0707 44.7147 25.3144 41.444 25.1777 40.952C25.041 40.4509 24.2664 37.8817 24.2208 37.3988C24.1753 36.925 24.3758 35.9775 24.5763 35.2122C24.7768 34.456 24.9408 32.4608 24.8952 31.6043C24.8679 30.9119 24.8497 29.2902 24.8497 28.6797C23.3005 29.8551 22.1524 30.9757 21.6603 31.5406C21.633 31.577 21.5419 31.6864 21.5145 31.7136C21.1864 31.1124 20.8584 30.5019 20.5395 29.9006C20.6488 29.1991 21.1318 28.124 21.8425 26.9852C22.9087 25.2814 24.2756 23.6597 25.8703 22.7213C26.1163 22.6758 26.7268 22.6119 26.7906 22.6393C26.1072 22.8033 24.5489 24.1973 23.3279 25.8646C22.3802 27.1674 21.5965 28.5067 21.4507 29.1536C23.1365 27.8963 25.9796 26.1197 29.4514 24.425C31.7478 23.3044 33.6796 22.5391 35.0282 22.2385V24.5161C34.7458 24.9443 34.4451 25.3725 34.1535 25.8008C34.3903 25.6732 34.7002 25.491 35.0282 25.2906V25.7279C34.5908 25.9647 34.1625 26.1743 33.789 26.3201C32.7775 27.7687 31.8389 29.0442 31.4197 29.5544C30.718 30.4017 29.9253 31.5588 29.6336 31.7775C29.3421 31.9961 28.0481 33.0894 27.9843 33.0802C27.7838 33.0438 27.6107 32.8161 27.6381 32.7158C27.8294 32.4152 28.1939 31.9869 28.358 31.7775C28.5766 31.5406 28.8774 31.3857 29.0687 30.7843C29.169 30.4928 29.2145 30.4017 29.1963 30.183C29.169 29.764 29.1234 29.6181 29.5243 29.4177C29.9344 29.2082 30.0802 29.2173 30.4174 29.2629C31.1008 28.6889 31.9847 27.5136 32.5861 26.7847C33.3607 25.8463 34.0897 24.8988 34.8551 23.8875C33.1419 24.1152 30.4629 25.2359 28.9229 26.065C28.8864 26.238 28.85 26.402 28.8136 26.5752C28.5129 27.9327 27.5014 32.5336 27.4923 32.9801C27.4831 33.4994 27.2827 34.4014 27.2827 34.4014C27.2827 34.4014 26.745 35.5858 26.5992 36.0595C25.9249 38.2097 26.4535 40.1867 26.7632 42.2458C26.9819 43.6852 27.1551 45.6167 27.0548 46.5278C26.9091 47.9218 26.4808 49.9353 26.4808 49.9353ZM10.0328 34.0552C11.1445 29.1718 12.2927 24.3248 13.368 19.4323H19.3002L19.3092 19.6692H17.9242V21.9014C17.8422 22.0197 17.7875 22.1018 17.7875 22.1018C17.0676 23.1313 16.6758 23.678 16.0014 24.4797C15.9012 24.5981 15.5003 24.9899 15.3909 25.1175C15.0903 25.6276 14.8624 25.9375 14.7713 26.0923C14.671 26.3747 14.2063 26.9487 14.2063 26.9487C14.0514 27.1127 13.8874 27.2676 13.7325 27.4225C13.86 27.6867 14.1425 27.4589 14.2519 27.3587C14.4979 27.1309 14.744 26.7938 15.0082 26.4749C15.1358 26.3201 15.3363 26.2108 15.3363 26.2108C15.3181 26.4294 15.3453 26.8758 15.3271 27.0945C15.3271 27.2312 15.4092 27.3314 15.5641 27.2402C15.5823 27.1036 15.6097 26.803 15.6643 26.6572C15.7281 26.4841 15.801 26.3019 15.8647 26.1379C15.965 25.8919 15.9377 25.9283 16.0379 25.6823C16.0835 25.5639 15.9924 25.3635 16.0379 25.245C16.6211 24.5617 17.2772 23.8237 17.9242 23.0858V36.925L19.692 36.9341V37.1984L11.6731 37.1619V36.8977L13.368 36.9068V20.6805L9.60449 37.1802L6.46984 37.2166L2.04119 19.651H2.03208L2.17787 34.5927C2.1961 35.3307 2.20521 36.0048 2.53326 36.433C2.76107 36.7337 3.15291 36.8795 3.72699 36.9524L4.12794 36.9614L4.13705 37.2257L0 37.1802V36.925C0.628758 36.9524 1.34864 36.7884 1.58557 36.4057C1.95007 35.8135 1.85894 34.866 1.91361 33.9367L1.78604 19.6692H0.428285V19.4323C2.54237 19.4505 4.64735 19.4414 6.7341 19.4232L10.0328 34.0552ZM35.0192 21.3182V20.3252C34.2264 20.5256 33.2058 20.9994 31.6293 21.8558C30.308 22.5755 29.0505 23.4502 27.9843 24.3157C27.1278 25.0172 26.6357 25.5639 26.6357 25.5639C26.7997 25.4819 26.9819 25.4272 27.1278 25.3179C28.7771 24.0333 32.8686 21.5825 34.9736 21.3274C34.9918 21.3182 35.01 21.3182 35.0192 21.3182ZM27.7109 23.0219C27.5834 23.3864 27.4558 23.7417 27.3192 24.1062C27.3829 24.0151 27.4831 23.9148 27.6016 23.7691C28.3488 22.858 29.5972 21.874 30.4447 21.218C31.2831 20.5802 32.8959 19.5325 33.3425 19.5052C33.4792 19.4961 33.6158 19.5143 33.6614 19.578C33.7069 19.6236 33.1693 20.6987 33.1237 20.8901C33.1237 20.8991 33.1329 20.9174 33.1419 20.9265C33.2331 20.808 34.2081 19.3958 34.2446 19.159C34.1625 18.8675 33.4609 18.9586 33.224 19.0314C32.3127 19.3139 30.1258 20.5165 27.7109 23.0219ZM21.4598 19.4323C21.3504 19.4961 21.314 19.4869 21.2867 19.4687C21.2685 19.4597 22.0431 18.1659 22.1068 18.0384C22.4531 17.2275 22.4348 17.0544 22.5715 16.9177C22.6718 16.8175 22.8814 16.5625 23.3005 16.3802C23.583 16.1525 23.8291 15.8974 24.1115 15.6696C24.1753 15.8062 24.3849 15.8882 24.5125 15.9338C24.5034 15.4236 24.4942 14.9134 24.4852 14.4031C24.4852 14.4031 24.1662 13.9841 23.7653 13.6925C23.3825 13.5286 22.854 13.6197 22.7903 13.5923C22.7903 13.4647 22.7447 13.1368 22.5533 12.8908C22.3711 12.663 21.8334 12.3806 21.642 12.3806C21.5601 12.417 21.3596 12.4261 21.1864 12.2621C20.8948 12.0252 20.8219 11.6881 20.8858 11.3237C20.9586 10.9047 21.2867 10.5766 21.6785 10.4126C22.1432 10.2213 22.7538 10.1758 23.255 10.2486C23.6468 10.3033 25.3417 10.7315 25.287 11.2781C25.2597 11.5151 24.7403 11.7246 24.0204 11.8795C23.3005 12.0161 22.6353 11.843 22.1342 11.5788C21.9792 11.4969 21.879 11.3602 21.9883 11.5697C22.043 11.6608 22.1797 11.7792 22.3711 11.8886C23.0545 12.2895 23.7014 12.3806 24.476 12.1619C24.5671 12.1346 24.6765 12.0981 24.7494 12.0525C24.7494 12.1437 24.7403 12.2348 24.7494 12.3259C24.7676 12.5536 24.8223 12.8908 25.0046 13.2734C25.3326 13.9658 25.9431 14.312 25.9431 14.312C26.2256 14.148 26.6266 13.8474 26.8999 13.6834C26.8908 13.4465 26.8544 13.2643 27.0093 12.909C27.3374 12.0252 28.1302 10.5311 28.3306 9.84779C28.4581 9.41957 28.8409 8.80915 28.9411 8.42648C29.1416 7.21475 29.2691 5.45637 29.7521 3.84376C29.8251 3.59777 29.8706 3.51577 29.9526 3.27889C30.0893 3.08756 30.2351 2.96001 30.3718 2.77779C30.4264 2.66846 30.5905 2.55002 30.636 2.32226C30.6908 2.07627 30.9458 1.70272 31.0005 1.59339C31.0461 1.32007 30.8639 1.38384 30.8547 1.40206C30.7454 1.55694 30.5085 1.89405 30.39 2.04893C30.4174 1.92138 30.4993 1.39295 30.5176 1.2654C30.5449 1.08319 30.5358 -0.228765 30.2533 -0.000995791C30.2533 -0.000995791 30.2989 0.418101 30.2533 0.773421C30.2351 0.90097 30.2078 1.19252 30.0893 1.49317C29.8706 2.03071 29.6246 2.68669 29.6428 2.68669C29.5335 2.89623 29.415 3.10578 29.3421 3.30622C28.7589 4.88239 28.5219 5.95746 28.0481 7.43341C27.8203 8.38093 27.8841 9.5744 27.8841 9.5744C27.793 9.73847 27.7019 9.90245 27.6198 10.0755C27.4011 10.5402 27.2918 10.9775 27.1186 11.4057C26.9364 11.8521 26.6813 12.2895 26.499 12.8088C26.4625 13.0457 26.4261 13.2825 26.3987 13.5194C26.3987 13.5194 26.1527 14.0934 25.7518 13.8019C25.3873 13.5741 25.1503 12.8999 25.0957 12.6175C25.0592 12.4353 25.1139 12.2621 25.1959 12.0981C25.3417 11.8066 25.606 11.4969 25.6971 11.3692C25.6971 11.1506 25.4419 10.9411 25.4419 10.9411C24.9317 10.5493 24.1844 10.1758 23.3734 10.0482C22.5715 9.92067 21.7058 10.0391 21.15 10.4491C20.8675 10.6495 20.6032 11.014 20.5121 11.5151C20.4301 11.9797 20.5942 12.3806 20.9769 12.663C20.9769 12.663 20.5121 13.4192 21.1773 13.9749C21.8425 14.5307 22.608 13.9385 22.608 13.9385C22.7811 13.902 22.9542 13.8747 23.1365 13.8747C23.8473 13.9385 24.4214 14.3849 24.0477 15.3598C24.0477 15.3598 23.3461 16.0158 23.182 16.116C23.018 16.2071 22.7082 16.2344 22.2981 16.608C21.8881 16.9815 21.8608 17.4826 21.6603 17.9108C21.4689 18.3391 20.5213 19.9061 20.0383 20.3708C19.5553 20.8445 18.7716 20.9812 18.5256 21.1452C18.3616 21.2545 18.0882 21.628 17.9151 21.8649V23.0675C18.4527 22.4571 18.9903 21.8467 19.4733 21.2727C19.7467 21.0814 19.9381 20.9538 20.2205 20.7989C20.5395 20.6167 21.1226 20.1885 21.3049 20.0883C22.1888 19.2683 22.3984 19.1772 23.2003 18.3391C23.6103 17.8926 24.0386 17.6102 24.0842 17.6739C24.2756 17.7741 24.4578 17.8652 24.6492 17.9655C24.6492 17.9655 25.1413 18.257 25.7153 19.2775C26.2894 20.2979 27.2189 23.0129 27.2189 23.0129C27.392 22.9218 27.556 22.8397 27.7292 22.7486C28.2303 20.0883 28.7315 17.437 29.2327 14.7767C29.1872 14.5853 29.096 14.3849 28.9867 14.2209C28.9867 14.2209 27.6654 14.7585 26.4899 15.6514C25.3144 16.5351 24.6309 17.4097 24.6309 17.4097C24.4669 17.3459 24.1844 17.2458 24.0204 17.1911C23.738 17.2548 23.5921 17.4188 23.3552 17.6466C22.8722 18.1932 22.4258 18.5668 21.715 19.1954C21.6238 19.2957 21.5509 19.3776 21.4598 19.4323ZM20.667 28.6797C20.6124 28.6342 19.3822 27.1309 19.3731 27.1127C20.4483 25.1539 23.2094 23.2406 24.8223 22.6393C25.4055 22.4207 26.1983 22.2658 26.8088 22.3933C26.6995 22.2293 26.4899 21.792 26.1983 21.6827C25.205 21.4275 21.9701 21.7829 20.9404 22.3022C19.8834 22.703 18.9175 23.2497 18.316 23.9421C19.0542 24.5253 19.3458 24.7166 19.7922 25.6823C19.3548 26.2198 18.9175 26.7665 18.4801 27.3041C19.0542 27.796 19.6373 28.2971 20.2114 28.7891C20.3664 28.7526 20.5213 28.7162 20.667 28.6797ZM20.1385 25.1721C21.4871 23.8966 22.6808 23.0402 24.3485 22.1656C22.7082 22.0927 21.0133 22.3296 19.0724 23.8328C19.4369 24.2792 19.7922 24.7257 20.1385 25.1721ZM25.3781 28.2789C25.4511 29.1991 25.6971 32.4972 25.688 33.2716C25.6789 34.1736 24.7038 36.8703 24.8405 37.3988C24.9772 37.9272 25.9978 35.604 25.9978 35.604C26.253 35.0391 26.5172 34.4651 26.7724 33.9003C26.9273 33.0438 27.0731 32.1965 27.228 31.3401L28.358 26.3565C27.2918 26.9669 26.2803 27.6229 25.3781 28.2789Z" fill="#FFBCA1"/>
</g>
<defs>
<clipPath id="clip0">
<rect width="50" height="50" fill="white"/>
</clipPath>
</defs>
</svg>
