<svg xmlns="http://www.w3.org/2000/svg" viewBox="0 0 90 90">
<path d="M61.558 34.98c4.855.016 9.694 0 14.55 0 1.935 0 4.05.066 5.871.312 4.593.606 6.725 4.46 6.561 7.855-.148 2.771-1.558 5.674-5.626 6.79-1.246.344-2.477.491-3.625.59-.147.016-.394.032-.475.049.082 0 .328.016.508.016 1.017.017 2.05.082 3.05.246 4.282.705 8.005 2.985 7.595 8.134-.23 2.788-1.804 5.56-5.773 7.003-2.248.82-4.675 1.017-7.02 1l-17.256-.065v-.476l3.15.017V46.279c1.295-.705 2.624-1.525 3.624-2.263.312-.87.345-2.427-.016-3.542-.082-.345-.377-.558-.87-.673.722-1.18 1.214-2.115 1.329-2.558 0-.36-.623-.721-2.132-.886-.59-.032-1.214.033-1.952.23v-1.18h-1.493v-.427zm1.493 10.496c1.066-.656 2.165-1.427 2.591-1.985-.328-.426-.95-.623-1.787-.623-.263.394-.525.804-.804 1.214v1.394zm0-5.494c.787-.18 1.46-.263 2-.263.23-.344.395-.64.444-.82-.246-.623-1.608-.705-2.444-.54v1.623zm12.548 10.873l-4.33-.05V66.5l4.674.016c1.198 0 1.739.066 2.805-.656.689-.475 1.263-1.148 1.706-1.935.836-1.509 1.23-3.493 1.164-5.445-.13-3.853-1.968-7.625-6.02-7.625zm-.492-15.432h-3.855v14.956l4.347.033c.738 0 1.46-.18 2.132-.476 3.166-1.394 3.658-5.198 3.231-9.101-.328-2.936-2.526-5.248-5.855-5.412z"></path>
<path d="M47.665 89.885c-.41.163-.836.147-1.295-.017 0 0-.066-.656-.066-.935 0-.278.213-1.574.148-2-.082-.443-.132-1.148-.738-2.214-.607-1.066-1.149-1.87-1.23-2.313-.083-.459-.312-1.033.147-1.328.46-.295 1.312-.656 1.542-.344 0 .016.049.114.098.278.197.59.607 1.886.706 1.657 0 0 .049-1.066 0-1.624-.05-.557-1.411-6.445-1.657-7.33-.246-.902-1.64-5.527-1.722-6.396-.082-.853.278-2.558.64-3.936.36-1.361.655-4.953.573-6.494-.049-1.247-.082-4.166-.082-5.264-2.788 2.115-4.855 4.132-5.74 5.15-.05.065-.214.261-.263.31a316.882 316.882 0 0 1-1.755-3.263c.197-1.263 1.066-3.198 2.346-5.248 1.919-3.066 4.379-5.985 7.25-7.674.442-.082 1.541-.197 1.656-.148-1.23.295-4.035 2.804-6.233 5.805-1.706 2.345-3.116 4.756-3.379 5.92 3.035-2.263 8.152-5.46 14.402-8.51 4.133-2.018 7.61-3.395 10.038-3.937v4.1c-.509.77-1.05 1.542-1.575 2.313.427-.23.984-.558 1.575-.919v.787c-.788.427-1.558.804-2.23 1.066-1.822 2.608-3.511 4.904-4.265 5.822-1.264 1.525-2.69 3.608-3.215 4.002-.525.393-2.854 2.361-2.97 2.345-.36-.066-.672-.476-.623-.656.345-.542 1.001-1.312 1.296-1.69.394-.426.935-.705 1.28-1.787.18-.525.262-.689.23-1.082-.05-.755-.132-1.017.59-1.378.738-.377 1-.36 1.607-.279 1.23-1.033 2.821-3.148 3.904-4.46 1.394-1.69 2.706-3.395 4.084-5.215-3.083.41-7.906 2.427-10.678 3.919-.065.312-.131.607-.197.918-.54 2.444-2.361 10.726-2.378 11.53-.016.934-.377 2.557-.377 2.557s-.968 2.132-1.23 2.985c-1.214 3.87-.263 7.43.295 11.135.394 2.591.705 6.068.525 7.708-.263 2.51-1.034 6.133-1.034 6.133zM18.06 61.3c2.001-8.79 4.068-17.514 6.003-26.32H34.74l.017.426h-2.493v4.017c-.148.214-.247.361-.247.361-1.295 1.853-2 2.837-3.214 4.28-.18.214-.902.919-1.1 1.148-.54.919-.95 1.476-1.115 1.755-.18.509-1.017 1.542-1.017 1.542-.279.295-.574.574-.853.853.23.475.738.065.935-.115.443-.41.886-1.017 1.362-1.591.23-.279.59-.476.59-.476-.033.394.017 1.198-.016 1.591 0 .246.148.427.426.263.033-.246.082-.788.18-1.05.116-.312.247-.64.362-.935.18-.443.13-.377.311-.82.082-.213-.082-.574 0-.787 1.05-1.23 2.231-2.558 3.396-3.887v24.911l3.182.017v.475l-14.434-.066v-.475l3.05.016V37.226l-6.774 29.7-5.642.065-7.972-31.618h-.016l.262 26.895c.033 1.328.05 2.542.64 3.313.41.54 1.115.803 2.149.934l.721.017.017.475L0 66.925v-.459c1.132.05 2.428-.246 2.854-.935.656-1.066.492-2.771.59-4.444l-.23-25.681H.772v-.427c3.805.033 7.594.017 11.35-.016L18.06 61.3zm44.975-22.926v-1.788c-1.427.361-3.264 1.214-6.101 2.756-2.379 1.295-4.642 2.87-6.561 4.427-1.542 1.263-2.428 2.247-2.428 2.247.295-.148.623-.246.886-.443 2.969-2.312 10.334-6.724 14.122-7.183.033-.016.066-.016.082-.016zM49.88 41.44c-.23.656-.46 1.295-.706 1.951.115-.164.296-.344.509-.607 1.345-1.64 3.592-3.41 5.117-4.591 1.51-1.148 4.413-3.034 5.216-3.084.246-.016.492.017.575.132.081.082-.886 2.017-.968 2.361 0 .017.016.05.033.066.164-.213 1.919-2.755 1.984-3.182-.147-.525-1.41-.36-1.837-.23-1.64.51-5.577 2.674-9.923 7.184zm-11.252-6.462c-.197.115-.263.099-.312.066-.033-.017 1.361-2.345 1.476-2.575.623-1.46.59-1.771.837-2.017.18-.18.557-.64 1.312-.968.508-.41.951-.869 1.46-1.279.115.246.492.394.721.476l-.049-2.755s-.574-.755-1.295-1.28c-.69-.295-1.64-.13-1.756-.18 0-.23-.082-.82-.426-1.262-.328-.41-1.296-.919-1.64-.919-.148.066-.509.082-.82-.213-.525-.427-.657-1.033-.542-1.69.131-.754.722-1.344 1.427-1.64.837-.343 1.936-.425 2.838-.294.705.098 3.756.869 3.658 1.853-.05.426-.985.803-2.28 1.082-1.296.246-2.493-.066-3.396-.541-.278-.148-.459-.394-.262-.016.098.164.344.377.689.573 1.23.722 2.395.886 3.789.492.164-.049.36-.114.492-.196 0 .164-.017.328 0 .492.033.41.131 1.017.46 1.705a4.603 4.603 0 0 0 1.689 1.87c.508-.295 1.23-.837 1.722-1.132-.017-.426-.082-.754.197-1.394.59-1.59 2.017-4.28 2.378-5.51.23-.77.919-1.87 1.099-2.558.36-2.181.59-5.346 1.46-8.25.131-.442.213-.59.36-1.016.247-.344.51-.574.755-.902.099-.197.394-.41.476-.82.098-.443.558-1.115.656-1.312.082-.492-.246-.377-.263-.344-.196.279-.623.885-.836 1.164.05-.23.197-1.18.23-1.41.049-.328.032-2.69-.476-2.28 0 0 .082.755 0 1.394-.033.23-.082.755-.295 1.296-.394.967-.837 2.148-.804 2.148-.197.377-.41.755-.541 1.115-1.05 2.837-1.477 4.773-2.33 7.43-.41 1.705-.295 3.853-.295 3.853-.164.295-.328.59-.475.902-.394.836-.59 1.624-.902 2.394-.328.804-.788 1.591-1.116 2.526-.065.426-.131.853-.18 1.279 0 0-.443 1.033-1.165.508-.656-.41-1.082-1.623-1.18-2.132-.066-.328.032-.64.18-.934.262-.525.738-1.083.902-1.312 0-.394-.46-.771-.46-.771-.918-.705-2.263-1.378-3.723-1.607-1.443-.23-3.002-.017-4.002.721-.508.361-.984 1.017-1.148 1.92-.148.835.147 1.557.836 2.066 0 0-.836 1.36.361 2.361 1.198 1 2.575-.066 2.575-.066.312-.065.624-.114.952-.114 1.28.114 2.312.918 1.64 2.673 0 0-1.263 1.18-1.558 1.36-.296.165-.853.214-1.591.886-.738.673-.788 1.575-1.148 2.346-.345.77-2.05 3.591-2.92 4.427-.87.853-2.28 1.1-2.723 1.394-.295.197-.787.87-1.099 1.296v2.165a193.997 193.997 0 0 0 2.805-3.231 13.21 13.21 0 0 1 1.345-.853c.574-.328 1.624-1.099 1.952-1.279 1.59-1.476 1.968-1.64 3.412-3.149.738-.803 1.508-1.312 1.59-1.197.345.18.673.345 1.017.525 0 0 .886.525 1.92 2.361 1.033 1.837 2.706 6.724 2.706 6.724.312-.164.607-.311.919-.475.902-4.789 1.804-9.561 2.706-14.35a3.216 3.216 0 0 0-.443-1s-2.378.967-4.494 2.575c-2.116 1.59-3.346 3.165-3.346 3.165a29.359 29.359 0 0 0-1.1-.394c-.508.115-.77.41-1.197.82-.869.984-1.673 1.656-2.952 2.788-.164.18-.295.328-.46.426zM37.2 51.625c-.099-.082-2.313-2.788-2.33-2.821 1.936-3.526 6.906-6.97 9.81-8.052 1.049-.394 2.476-.672 3.575-.443-.197-.295-.574-1.082-1.1-1.28-1.787-.458-7.61.181-9.463 1.116-1.903.722-3.642 1.706-4.724 2.952 1.328 1.05 1.853 1.394 2.657 3.132-.787.968-1.575 1.952-2.362 2.92l3.116 2.672c.28-.065.558-.13.82-.196zm-.952-6.314c2.428-2.296 4.577-3.838 7.578-5.412-2.952-.131-6.003.295-9.497 3.001a123.33 123.33 0 0 1 1.92 2.41zm9.432 5.592c.13 1.656.574 7.593.557 8.987-.016 1.623-1.771 6.478-1.525 7.429.246.951 2.083-3.23 2.083-3.23.46-1.017.935-2.05 1.394-3.067.28-1.542.541-3.067.82-4.609l2.034-8.97a59.315 59.315 0 0 0-5.363 3.46z"></path>
</svg>