<svg viewBox="0 0 27 30" xmlns="http://www.w3.org/2000/svg">
<path d="M14.4659 18.8937C13.9103 18.6973 13.2981 18.4618 12.9693 18.2039C12.9533 18.1914 12.9271 18.1323 12.9261 18.0413C12.9274 17.8434 13.0391 17.6226 13.2454 17.5604C13.6065 17.451 13.9492 17.5229 14.1741 17.6894C14.529 18.0127 15.0788 17.9881 15.4034 17.6339C15.7275 17.2801 15.7045 16.7312 15.3527 16.4056C15.3469 16.4005 15.3475 16.4031 15.3539 16.3962C15.1585 16.216 14.8159 15.9983 14.3714 15.8689V15.7954C14.3714 15.3141 13.9812 14.9238 13.4998 14.9238C13.0304 14.9238 12.6282 15.2987 12.6282 15.8041V15.9216C11.0573 16.4925 10.6952 18.6446 11.8934 19.5842C12.4402 20.0129 13.2215 20.311 13.8848 20.5456C14.2406 20.6715 14.3739 20.9215 14.3216 21.2325C14.278 21.492 14.0546 21.9321 13.4939 21.9358C12.9116 21.94 12.7753 21.9181 12.3505 21.6402C11.9476 21.3767 11.4075 21.4895 11.144 21.8924C10.886 22.2867 10.9831 22.8372 11.396 23.1075C11.8594 23.4107 12.2264 23.561 12.6282 23.6314V23.7152C12.6282 24.1966 13.0184 24.5868 13.4998 24.5868C13.9692 24.5868 14.3713 24.2119 14.3713 23.7065V23.5328C16.4963 22.7649 16.7496 19.701 14.4659 18.8937Z" />
<path d="M26.7813 14.5188C26.9322 14.3463 27.0013 14.1298 26.9969 13.9273C26.941 11.3611 25.8883 9.06169 23.6322 7.85512C22.2488 7.11566 20.6338 6.89434 19.0669 6.92502C19.0728 6.92502 18.9853 7.03437 21.039 4.28549C22.4087 2.6383 21.3203 0.140672 19.1989 0.00650521C19.014 -0.0051741 18.8353 -0.0142968 18.6173 0.102613C18.5335 0.147587 18.4545 0.208249 18.3907 0.277221C18.3801 0.288319 17.4406 1.26816 15.8372 1.76904C15.0911 0.555665 13.8366 0.12446 13.7742 0.103658C13.5925 0.043112 13.3928 0.0418918 13.196 0.113072C12.4709 0.374374 11.6453 0.979723 11.1599 1.76898C10.2955 1.49896 9.2941 0.950903 8.64191 0.312666C8.53047 0.199533 8.42994 0.10546 8.23912 0.043635C8.16643 0.0199858 8.06637 0.00075271 7.9698 0.00075271C5.74713 0.00075271 4.54707 2.58798 5.95817 4.28549L7.93023 6.92502C7.04958 6.90776 6.16398 6.96999 5.3111 7.15546C1.82335 7.9127 0.0738907 10.543 0.000212223 13.9273C-0.010305 14.4085 0.371394 14.8072 0.852628 14.8176C1.33636 14.8273 1.73247 14.4464 1.74293 13.9652C1.77157 12.6497 2.12457 10.8475 3.64352 9.73247C4.90454 8.8066 6.62232 8.61009 8.17277 8.67389C2.41643 16.5997 2.55804 16.4044 2.54735 16.4199C-0.129248 20.3124 1.21445 25.6601 5.37275 27.8144C5.5817 27.9225 5.68949 27.9719 5.96108 28.0928C10.9457 30.3026 16.0547 30.303 21.0418 28.0903C21.1865 28.0261 21.3382 27.9577 21.4807 27.8876C25.6014 25.8614 27.0771 20.7018 24.6869 16.7861C24.4667 16.4241 24.8709 16.9993 18.8244 8.67389C20.3745 8.61009 22.0924 8.80655 23.3536 9.73247C24.8726 10.8475 25.2255 12.6497 25.2542 13.9652C25.2716 14.7636 26.2624 15.1132 26.7813 14.5188ZM23.1143 17.5591C25.1217 20.6715 23.9182 24.857 20.5569 26.3968C15.8677 28.5449 11.1314 28.547 6.44034 26.3968C3.06379 24.85 1.88395 20.6588 3.88297 17.5591C3.98774 17.3969 3.50017 18.0741 10.1734 8.8858C10.7457 8.97935 11.3444 9.10213 11.9685 9.25408C11.7513 10.0918 11.3439 10.9117 10.6516 11.4308C10.0999 11.8446 10.2277 12.699 10.8633 12.9414C10.9467 12.9733 11.0537 12.9998 11.1752 12.9998C11.4993 12.9998 11.6918 12.8395 11.9061 12.658C12.6626 12.0173 13.1767 11.1579 13.4987 10.2118C13.8228 11.1641 14.3388 12.0207 15.0913 12.658C15.3119 12.8449 15.5003 12.9998 15.8223 12.9998C15.9227 12.9998 16.0307 12.9809 16.1335 12.9417C16.7711 12.6986 16.8963 11.8436 16.3458 11.4308C15.6541 10.9122 15.2459 10.0915 15.0288 9.25408C15.0544 9.25408 15.7596 9.05983 16.8239 8.8858C23.5317 18.1218 23.0112 17.3994 23.1143 17.5591ZM7.33976 3.22233C7.28578 3.15027 7.08456 2.94655 7.09717 2.59187C7.11309 2.21407 7.35928 1.90059 7.67579 1.79135C8.54894 2.55039 9.70944 3.19356 10.9763 3.52994C11.0842 3.55917 11.4768 3.65864 11.5789 3.65864C11.9834 3.68694 12.3434 3.4336 12.4661 3.06556C12.6013 2.6598 12.8793 2.3175 13.2348 2.05881C13.4138 1.92865 13.4957 1.89739 13.4957 1.89158C13.499 1.88972 13.498 1.88961 13.5015 1.89158C13.5511 1.90402 13.8174 2.09036 13.9641 2.22255C14.4443 2.65591 14.498 3.03162 14.592 3.20524C14.6685 3.3465 14.784 3.46835 14.9383 3.55318C15.2328 3.71524 15.4759 3.66614 15.8037 3.58421C17.1873 3.2383 18.3638 2.62383 19.3214 1.79135C19.8285 1.96654 20.0906 2.62575 19.7402 3.11669C19.6882 3.1888 19.7384 3.11407 19.5693 3.34034C19.3848 3.58671 18.499 4.77294 16.7328 7.13681C15.6546 7.30265 14.5463 7.55849 13.4986 7.85431C12.4594 7.56081 11.3498 7.30375 10.2646 7.13687C10.2588 7.13594 10.2175 7.07394 7.33976 3.22233Z" />
</svg>
