<svg width="32" height="32" viewBox="0 0 32 32" fill="none" xmlns="http://www.w3.org/2000/svg">
<path d="M13.1613 18.6549C16.3793 21.8728 21.5967 21.8728 24.8147 18.6549C24.9379 18.5317 25.0564 18.4055 25.1701 18.2766C24.7622 19.8973 23.9245 21.4317 22.6567 22.6994C18.9178 26.4384 12.8557 26.4384 9.11671 22.6994C5.37777 18.9605 5.37776 12.8984 9.1167 9.15944C10.3845 7.89165 11.9189 7.05395 13.5397 6.646C13.4108 6.7598 13.2846 6.87831 13.1613 7.00155C9.94338 10.2195 9.94338 15.4369 13.1613 18.6549Z" fill="#FCD57E" stroke="black"/>
<path d="M22.719 12.84L23.065 9.71139L26.1936 9.36557L26.1936 9.11709L23.065 8.77114L22.719 5.64251L22.4705 5.64252L22.1247 8.77114L18.996 9.11709L18.996 9.36557L22.1247 9.71139L22.4705 12.84L22.719 12.84Z" fill="white" stroke="black" stroke-width="0.25"/>
<path d="M7.40268 27.9908L7.64731 25.7779L9.86017 25.5333V25.2848L7.64731 25.0402L7.40268 22.8273L7.1542 22.8273L6.90957 25.0402L4.69671 25.2848L4.69671 25.5333L6.90957 25.7779L7.1542 27.9908H7.40268Z" fill="white" stroke="black" stroke-width="0.25"/>
<path d="M15.6118 15.2908L15.5234 15.2024L15.435 15.2908L14.977 15.7488L14.8887 15.8372L14.977 15.9255L15.435 16.3835L15.5234 16.4719L15.6118 16.3835L16.0697 15.9255L16.1581 15.8372L16.0697 15.7488L15.6118 15.2908Z" fill="white" stroke="black" stroke-width="0.25"/>
<path d="M26.5956 11.8638L26.5073 11.7754L26.4189 11.8638L25.9609 12.3218L25.8725 12.4102L25.9609 12.4985L26.4189 12.9565L26.5073 13.0449L26.5956 12.9565L27.0536 12.4985L27.142 12.4102L27.0536 12.3218L26.5956 11.8638Z" fill="white" stroke="black" stroke-width="0.25"/>
<path d="M28.5385 17.5543L28.4501 17.4659L28.3617 17.5543L27.9038 18.0122L27.8154 18.1006L27.9038 18.189L28.3617 18.6469L28.4501 18.7353L28.5385 18.6469L28.9965 18.189L29.0849 18.1006L28.9965 18.0122L28.5385 17.5543Z" fill="white" stroke="black" stroke-width="0.25"/>
<path d="M5.16645 7.56109L5.07806 7.4727L4.98968 7.56109L4.53173 8.01903L4.44334 8.10742L4.53173 8.19581L4.98968 8.65376L5.07806 8.74215L5.16645 8.65376L5.6244 8.19581L5.71278 8.10742L5.6244 8.01903L5.16645 7.56109Z" fill="white" stroke="black" stroke-width="0.25"/>
<path d="M22.0576 26.1175L21.9692 26.0291L21.8808 26.1175L21.4228 26.5754L21.3345 26.6638L21.4228 26.7522L21.8808 27.2102L21.9692 27.2985L22.0576 27.2102L22.5155 26.7522L22.6039 26.6638L22.5155 26.5754L22.0576 26.1175Z" fill="white" stroke="black" stroke-width="0.25"/>
<path d="M7.76166 5.89532L7.67328 5.80693L7.58489 5.89532L7.12694 6.35326L7.03856 6.44165L7.12694 6.53004L7.58489 6.98798L7.67328 7.07637L7.76166 6.98798L8.21961 6.53004L8.30799 6.44165L8.21961 6.35326L7.76166 5.89532Z" fill="white" stroke="black" stroke-width="0.25"/>
</svg>
