<svg width="22" height="22" viewBox="0 0 22 22" fill="none" xmlns="http://www.w3.org/2000/svg">
<path d="M6.97884 15.9825L7.1517 16.1554L7.39427 16.1251C11.2443 15.645 13.4675 13.4532 14.7139 11.3974C15.3345 10.3737 15.7149 9.38213 15.9404 8.64696C16.0534 8.27874 16.1281 7.97304 16.1748 7.75736C16.1982 7.64946 16.2146 7.56393 16.2254 7.50419C16.2307 7.47432 16.2347 7.45087 16.2374 7.43429L16.2406 7.41461L16.2415 7.40872L16.2418 7.40678L16.2419 7.40607C16.2419 7.40578 16.2419 7.40552 15.7473 7.33243L16.2419 7.40552L16.2787 7.15672L16.1009 6.97888L14.2071 5.08512C14.207 5.08496 14.2068 5.08481 14.2066 5.08466C14.0229 4.90002 13.8975 4.66537 13.8462 4.40995C13.7949 4.15432 13.82 3.88923 13.9184 3.6478L13.9198 3.64443L14.8416 1.33562L14.8417 1.3354C14.9397 1.08948 15.1091 0.878521 15.3281 0.729653C15.5468 0.580913 15.805 0.500954 16.0695 0.500035L20.1535 0.500044L20.1566 0.500025C20.3451 0.498868 20.5317 0.537634 20.7041 0.613773C20.8766 0.689912 21.0309 0.801697 21.157 0.941776C21.2832 1.08185 21.3782 1.24705 21.4359 1.4265C21.4934 1.60544 21.5126 1.7945 21.492 1.98132C21.1878 4.5635 20.2323 9.20681 17.383 13.3176C14.5491 17.4061 9.82506 20.9957 1.90036 21.4895C1.72128 21.4983 1.54226 21.4709 1.37398 21.409C1.20491 21.3467 1.05019 21.2509 0.919117 21.1273C0.788048 21.0037 0.683345 20.8549 0.611313 20.6898C0.539525 20.5252 0.501669 20.3479 0.5 20.1683V15.9443C0.502834 15.6798 0.583698 15.422 0.732476 15.2032C0.8814 14.9842 1.09172 14.8141 1.337 14.7142C1.33741 14.714 1.33782 14.7139 1.33823 14.7137L3.64191 13.7939C3.64229 13.7938 3.64268 13.7936 3.64306 13.7935C3.8864 13.6981 4.15219 13.6753 4.40824 13.7278C4.66423 13.7803 4.89951 13.9059 5.08562 14.0893C5.08596 14.0896 5.0863 14.09 5.08665 14.0903L6.97884 15.9825Z" stroke="#535353"/>
</svg>
