<svg viewBox="0 0 25 25" fill="none" xmlns="http://www.w3.org/2000/svg">
<path d="M16.6677 17.7602L18.8205 15.6074C19.1104 15.3211 19.4773 15.1251 19.8765 15.0432C20.2757 14.9613 20.6901 14.9971 21.0693 15.1461L23.693 16.1937C24.0762 16.3492 24.4049 16.6148 24.6375 16.9568C24.8701 17.2989 24.9962 17.7021 25 18.1158V22.921C24.9978 23.2024 24.9386 23.4804 24.8261 23.7383C24.7136 23.9962 24.5501 24.2287 24.3454 24.4217C24.1406 24.6148 23.899 24.7644 23.6349 24.8616C23.3708 24.9588 23.0898 25.0015 22.8088 24.9872C4.424 23.8436 0.714362 8.27465 0.0127987 2.31616C-0.0197684 2.02356 0.0099873 1.72737 0.100108 1.4471C0.190229 1.16682 0.338672 0.908797 0.535672 0.690009C0.732673 0.471221 0.973765 0.296623 1.24309 0.177702C1.51241 0.0587811 1.80386 -0.00176752 2.09827 3.9277e-05H6.74012C7.15434 0.00126537 7.55872 0.126386 7.90125 0.359307C8.24378 0.592228 8.5088 0.922298 8.66221 1.30706L9.70975 3.93072C9.86377 4.30848 9.90306 4.72324 9.82272 5.1232C9.74239 5.52315 9.54599 5.89058 9.25806 6.17957L7.10532 8.33231C7.10532 8.33231 8.34507 16.7222 16.6677 17.7602Z" />
</svg>
