<svg viewBox="0 0 20 22" fill="none" xmlns="http://www.w3.org/2000/svg">
<path d="M19.1604 15.13L17.1604 13.98L18.0504 13.74C18.1811 13.7095 18.3043 13.6531 18.4127 13.574C18.5212 13.4949 18.6126 13.3948 18.6815 13.2797C18.7504 13.1645 18.7955 13.0367 18.8139 12.9037C18.8324 12.7708 18.8239 12.6355 18.789 12.5059C18.7541 12.3763 18.6935 12.2551 18.6107 12.1495C18.528 12.0438 18.4248 11.9559 18.3073 11.8909C18.1899 11.826 18.0606 11.7854 17.9271 11.7715C17.7936 11.7576 17.6587 11.7707 17.5304 11.81L14.7104 12.57L12.0004 11L14.7104 9.43L17.5304 10.19H17.7904C18.0556 10.2245 18.3236 10.1522 18.5355 9.98903C18.7475 9.82587 18.8859 9.58522 18.9204 9.32C18.9548 9.05478 18.8825 8.78673 18.7194 8.57482C18.5562 8.3629 18.3156 8.22448 18.0504 8.19L17.1604 8L19.1604 6.85C19.2746 6.78434 19.3748 6.69682 19.4552 6.59243C19.5357 6.48805 19.5947 6.36885 19.6291 6.24163C19.6635 6.11441 19.6724 5.98168 19.6555 5.85099C19.6385 5.72031 19.596 5.59425 19.5304 5.48C19.4647 5.36575 19.3772 5.26555 19.2728 5.18513C19.1684 5.1047 19.0492 5.04562 18.922 5.01126C18.7948 4.97691 18.662 4.96794 18.5314 4.98488C18.4007 5.00182 18.2746 5.04434 18.1604 5.11L16.0004 6.37L16.3004 5.26C16.3397 5.13169 16.3528 4.99677 16.3389 4.86328C16.325 4.7298 16.2844 4.60048 16.2194 4.48303C16.1545 4.36558 16.0666 4.2624 15.9609 4.17965C15.8552 4.09689 15.734 4.03625 15.6044 4.00133C15.4748 3.96642 15.3396 3.95795 15.2066 3.97642C15.0737 3.9949 14.9458 4.03994 14.8307 4.10886C14.7155 4.17779 14.6154 4.26919 14.5363 4.37762C14.4573 4.48605 14.4008 4.60929 14.3704 4.74L13.5504 7.74L11.0004 9.27V6.14L13.0704 4.07C13.2566 3.88264 13.3612 3.62919 13.3612 3.365C13.3612 3.10081 13.2566 2.84736 13.0704 2.66C12.9774 2.56627 12.8668 2.49188 12.7449 2.44111C12.6231 2.39034 12.4924 2.3642 12.3604 2.3642C12.2283 2.3642 12.0976 2.39034 11.9758 2.44111C11.8539 2.49188 11.7433 2.56627 11.6504 2.66L11.0004 3.31V1C11.0004 0.734784 10.895 0.48043 10.7075 0.292893C10.5199 0.105357 10.2656 0 10.0004 0C9.73514 0 9.48079 0.105357 9.29325 0.292893C9.10571 0.48043 9.00036 0.734784 9.00036 1V3.47L8.19036 2.66C8.09739 2.56627 7.98679 2.49188 7.86493 2.44111C7.74308 2.39034 7.61237 2.3642 7.48036 2.3642C7.34835 2.3642 7.21764 2.39034 7.09578 2.44111C6.97392 2.49188 6.86332 2.56627 6.77036 2.66C6.58411 2.84736 6.47957 3.10081 6.47957 3.365C6.47957 3.62919 6.58411 3.88264 6.77036 4.07L9.00036 6.3V9.3L6.43036 7.78L5.61036 4.78C5.57991 4.64929 5.52346 4.52605 5.44437 4.41762C5.36528 4.30919 5.26518 4.21779 5.15003 4.14886C5.03487 4.07994 4.90702 4.03489 4.77409 4.01642C4.64116 3.99795 4.50587 4.00642 4.37629 4.04133C4.2467 4.07625 4.12547 4.13689 4.01981 4.21965C3.91416 4.3024 3.82624 4.40558 3.7613 4.52303C3.69636 4.64048 3.65573 4.7698 3.64182 4.90328C3.62792 5.03677 3.64102 5.17169 3.68036 5.3L4.00036 6.37L1.84036 5.13C1.72611 5.06434 1.60004 5.02182 1.46936 5.00488C1.33868 4.98794 1.20594 4.99691 1.07873 5.03126C0.951512 5.06562 0.832309 5.1247 0.727925 5.20513C0.62354 5.28555 0.536019 5.38575 0.470358 5.5C0.404697 5.61425 0.362182 5.74031 0.345241 5.871C0.3283 6.00168 0.337264 6.13441 0.371622 6.26163C0.44101 6.51855 0.60962 6.73739 0.840358 6.87L2.84036 8L2.00036 8.26C1.73514 8.29448 1.49448 8.4329 1.33133 8.64482C1.16817 8.85673 1.09588 9.12478 1.13036 9.39C1.16484 9.65522 1.30326 9.89587 1.51518 10.059C1.72709 10.2222 1.99514 10.2945 2.26036 10.26H2.52036L5.34036 9.5L8.00036 11L5.29036 12.57L2.47036 11.81C2.33804 11.7609 2.19682 11.7403 2.05598 11.7497C1.91515 11.759 1.77789 11.7981 1.65323 11.8643C1.52857 11.9305 1.41934 12.0223 1.33272 12.1338C1.2461 12.2452 1.18405 12.3737 1.15065 12.5108C1.11726 12.648 1.11327 12.7906 1.13896 12.9294C1.16464 13.0682 1.21941 13.2 1.29968 13.3161C1.37994 13.4322 1.48387 13.53 1.60464 13.6031C1.7254 13.6761 1.86026 13.7228 2.00036 13.74L2.89036 13.98L0.890358 15.13C0.65962 15.2626 0.49101 15.4814 0.421622 15.7384C0.352233 15.9953 0.38775 16.2693 0.520358 16.5C0.652966 16.7307 0.871804 16.8993 1.12873 16.9687C1.38565 17.0381 1.65962 17.0026 1.89036 16.87L4.00036 15.63L3.70036 16.74C3.66072 16.868 3.64721 17.0027 3.66063 17.136C3.67406 17.2693 3.71414 17.3986 3.77851 17.5161C3.84287 17.6337 3.9302 17.7371 4.03531 17.8202C4.14041 17.9033 4.26116 17.9645 4.39036 18C4.47675 18.0098 4.56397 18.0098 4.65036 18C4.87612 18.0077 5.09785 17.9388 5.27943 17.8044C5.46102 17.6701 5.59176 17.4782 5.65036 17.26L6.47036 14.26L9.00036 12.73V15.86L6.93036 17.93C6.74411 18.1174 6.63956 18.3708 6.63956 18.635C6.63956 18.8992 6.74411 19.1526 6.93036 19.34C7.02297 19.4345 7.13342 19.5097 7.25529 19.5612C7.37717 19.6127 7.50805 19.6395 7.64036 19.64C7.77267 19.6395 7.90355 19.6127 8.02542 19.5612C8.1473 19.5097 8.25774 19.4345 8.35036 19.34L9.00036 18.69V21C9.00036 21.2652 9.10571 21.5196 9.29325 21.7071C9.48079 21.8946 9.73514 22 10.0004 22C10.2656 22 10.5199 21.8946 10.7075 21.7071C10.895 21.5196 11.0004 21.2652 11.0004 21V18.53L11.8104 19.34C11.9033 19.4337 12.0139 19.5081 12.1358 19.5589C12.2576 19.6097 12.3883 19.6358 12.5204 19.6358C12.6524 19.6358 12.7831 19.6097 12.9049 19.5589C13.0268 19.5081 13.1374 19.4337 13.2304 19.34C13.4166 19.1526 13.5212 18.8992 13.5212 18.635C13.5212 18.3708 13.4166 18.1174 13.2304 17.93L11.0004 15.7V12.7L13.5704 14.19L14.3904 17.19C14.449 17.4082 14.5797 17.6001 14.7613 17.7344C14.9429 17.8688 15.1646 17.9377 15.3904 17.93C15.4767 17.9398 15.564 17.9398 15.6504 17.93C15.778 17.8964 15.8978 17.8378 16.0027 17.7576C16.1076 17.6774 16.1956 17.5773 16.2616 17.4629C16.3276 17.3486 16.3703 17.2223 16.3873 17.0913C16.4042 16.9604 16.3951 16.8274 16.3604 16.7L16.0004 15.63L18.1404 16.87C18.2546 16.9357 18.3807 16.9782 18.5114 16.9951C18.642 17.0121 18.7748 17.0031 18.902 16.9687C19.0292 16.9344 19.1484 16.8753 19.2528 16.7949C19.3572 16.7144 19.4447 16.6143 19.5104 16.5C19.576 16.3857 19.6185 16.2597 19.6355 16.129C19.6524 15.9983 19.6435 15.8656 19.6091 15.7384C19.5747 15.6112 19.5157 15.492 19.4352 15.3876C19.3548 15.2832 19.2546 15.1957 19.1404 15.13H19.1604Z" />
</svg>
