<svg viewBox="0 0 17 17" xmlns="http://www.w3.org/2000/svg"><g id="final" stroke="none" stroke-width="1" fill-rule="evenodd"><g id="01-01-01-dark-main-" transform="translate(-1196.000000, -2760.000000)"><g id="footer" transform="translate(0.000000, 2674.000000)"><g id="social" transform="translate(1151.000000, 82.000000)"><g id="ic_plane-2" transform="translate(45.000000, 4.000000)"><g id="ic_plane" transform="translate(0.000000, 0.500000)"><path d="M6.20687419,12.2511436 L6.20687419,15.4688347 C6.20687419,15.6936152 6.35363424,15.8927263 6.57095201,15.9634905 C6.62528145,15.9808347 6.68102205,15.9891599 6.73605707,15.9891599 C6.90116213,15.9891599 7.06062257,15.9128455 7.16222568,15.7768672 L9.07645655,13.2154797 L6.20687419,12.2511436 Z" id="Path"></path><path d="M16.7446693,0.12895393 C16.5823865,0.0158699187 16.3693022,0.00060704607 16.1929079,0.0914905149 L0.31742153,8.24325203 C0.129738003,8.33968564 0.0189623865,8.53671545 0.0344850843,8.74415176 C0.0507133593,8.95228184 0.191123217,9.12988618 0.390801556,9.19718157 L4.80418677,10.6804553 L14.2031803,2.77844986 L6.93009079,11.3943415 L14.3266563,13.8801084 C14.3816913,13.8981463 14.4395486,13.9078591 14.497406,13.9078591 C14.5933645,13.9078591 14.6886174,13.8821897 14.7725811,13.8322385 C14.9066407,13.7517615 14.9976602,13.616477 15.0209442,13.464542 L16.9612815,0.629853659 C16.9902101,0.435598916 16.906952,0.242731707 16.7446693,0.12895393 Z" id="Path"></path></g></g></g></g></g></g></svg>