<svg xmlns="http://www.w3.org/2000/svg" width="4" height="6" viewBox="0 0 4 6">
    <path d="M2.11 6c-.59 0-1.044-.128-1.361-.384C.43 5.36.272 4.973.272 4.455c0-.207.028-.395.083-.564H0v-.523h.635c.101-.11.235-.207.4-.294.172-.093.349-.175.53-.246.187-.07.35-.13.492-.18a3.02 3.02 0 0 0 .272-.114H0v-.523h2.888a.827.827 0 0 0 .084-.237c.02-.082.03-.185.03-.31 0-.257-.08-.456-.242-.598-.161-.147-.413-.22-.756-.22-.247 0-.482.035-.703.106-.217.07-.411.15-.583.237L.53.343c.192-.098.426-.18.704-.245A3.52 3.52 0 0 1 2.042 0c.509 0 .91.114 1.202.343.297.224.446.567.446 1.03 0 .115-.008.23-.023.344a1.037 1.037 0 0 1-.083.294H4v.523h-.658c-.08.087-.207.177-.378.27a7.17 7.17 0 0 1-.537.245c-.186.076-.355.142-.506.196-.152.055-.25.096-.295.123H4v.523H1.059a.99.99 0 0 0-.084.229c-.015.07-.022.169-.022.294 0 .632.406.948 1.217.948.287 0 .565-.038.832-.114.272-.082.499-.166.68-.253v.662a3.29 3.29 0 0 1-.688.237c-.287.07-.582.106-.884.106z"/>
</svg>
