<svg xmlns="http://www.w3.org/2000/svg" viewBox="0 0 17 17">
    <path d="M11.38 5.924c.324.26.724.43 1.161.469-.277-1.352-1.077-2.378-1.797-3.017a2.157 2.157 0 0 0-.142 1.24c.297.35.582.79.778 1.308z"/>
    <path d="M9.925 2.78l.643 1.452c0-.304.063-.594.176-.857a4.783 4.783 0 0 0-.819-.595z"/>
    <path fill-rule="evenodd" d="M12.643 11.818V7.396c0-.352-.037-.686-.102-1.003a2.16 2.16 0 0 1-1.16-.47c.163.431.265.916.265 1.45v4.861c0 .275.223.498.499.498a.57.57 0 0 1 0 1.138H2.66a.57.57 0 0 1 0-1.138.498.498 0 0 0 .498-.498v-4.86A4.249 4.249 0 0 1 7.403 3.13c.786 0 1.543.213 2.206.618.267.157.64.45.993.867a2.169 2.169 0 0 1-.034-.383L9.925 2.78a5.18 5.18 0 0 0-1.15-.465A1.567 1.567 0 0 0 7.403 0 1.567 1.567 0 0 0 6.03 2.317a5.249 5.249 0 0 0-3.867 5.057v4.444A1.568 1.568 0 0 0 1.096 13.3c0 .863.702 1.565 1.565 1.565h2.158A2.636 2.636 0 0 0 7.403 17c1.28 0 2.35-.92 2.584-2.134h2.158c.863 0 1.565-.702 1.565-1.565 0-.689-.448-1.275-1.067-1.483zM7.97 1.565a.57.57 0 1 0-1.139.001.57.57 0 0 0 1.14-.001zM5.844 14.866c.211.66.83 1.138 1.559 1.138.728 0 1.347-.479 1.558-1.138H5.844z" clip-rule="evenodd"/>
</svg>
