<svg xmlns="http://www.w3.org/2000/svg" width="59" height="59" fill="none" viewBox="0 0 59 59">
    <g fill="#B09EFF" fill-rule="evenodd" clip-path="url(#a)" clip-rule="evenodd">
        <path d="M40.355 22.931c3.183.011 6.355 0 9.537 0 1.27 0 2.656.043 3.85.205 3.01.397 4.409 2.924 4.301 5.15-.097 1.816-1.021 3.719-3.688 4.45-.817.226-1.624.323-2.377.387-.096.01-.258.022-.311.032.053 0 .215.011.333.011.667.01 1.344.054 2 .161 2.806.463 5.247 1.957 4.978 5.333-.15 1.827-1.182 3.644-3.785 4.59-1.473.538-3.064.667-4.602.656l-11.312-.043v-.312l2.065.011V30.339c.85-.463 1.72-1 2.376-1.484.205-.57.226-1.591-.01-2.322-.054-.226-.248-.366-.57-.44.473-.775.795-1.388.87-1.678 0-.236-.408-.473-1.397-.58a4.014 4.014 0 0 0-1.28.15v-.774h-.978v-.28zm.978 6.88c.7-.43 1.42-.934 1.7-1.3-.216-.28-.624-.409-1.173-.409-.172.258-.344.527-.527.796v.914zm0-3.6a6.016 6.016 0 0 1 1.312-.173c.15-.225.258-.419.29-.537-.16-.409-1.053-.463-1.602-.355v1.064zm8.226 7.127l-2.839-.032v10.288l3.065.011c.785 0 1.14.043 1.839-.43.451-.312.828-.752 1.118-1.269.548-.989.806-2.29.763-3.569-.086-2.526-1.29-4.999-3.946-4.999zm-.322-10.116H46.71v9.804l2.85.022c.483 0 .956-.118 1.397-.312 2.075-.914 2.398-3.408 2.118-5.967-.215-1.924-1.656-3.44-3.839-3.547z"/>
        <path d="M31.247 58.924c-.268.108-.548.097-.85-.01 0 0-.042-.43-.042-.614 0-.182.14-1.032.097-1.311-.054-.29-.086-.753-.484-1.451-.398-.7-.753-1.226-.807-1.516-.053-.301-.204-.678.097-.871.301-.194.86-.43 1.01-.226 0 .01.033.075.065.183.13.387.398 1.236.463 1.086 0 0 .032-.7 0-1.065-.033-.365-.925-4.225-1.086-4.805-.162-.591-1.076-3.623-1.13-4.193-.053-.559.183-1.677.42-2.58.237-.893.43-3.247.376-4.258-.032-.816-.053-2.73-.053-3.45-1.828 1.386-3.183 2.709-3.764 3.375-.032.043-.14.172-.172.204-.387-.709-.774-1.43-1.15-2.139.129-.828.699-2.096 1.537-3.44 1.258-2.01 2.871-3.924 4.753-5.031.29-.054 1.01-.13 1.086-.097-.806.193-2.645 1.838-4.086 3.806-1.118 1.537-2.043 3.117-2.215 3.88 1.99-1.483 5.344-3.58 9.44-5.579 2.71-1.322 4.99-2.225 6.581-2.58v2.688c-.333.505-.688 1.01-1.032 1.515.28-.15.645-.365 1.032-.602v.516c-.516.28-1.021.527-1.462.7-1.194 1.708-2.301 3.214-2.796 3.816-.828 1-1.763 2.365-2.107 2.623-.344.258-1.871 1.548-1.947 1.537-.236-.043-.44-.312-.408-.43.226-.355.656-.86.85-1.107.257-.28.612-.462.838-1.172.118-.344.172-.452.15-.71-.032-.494-.085-.666.388-.903.484-.247.656-.236 1.053-.182.807-.678 1.85-2.064 2.56-2.925a102.153 102.153 0 0 0 2.677-3.418c-2.021.268-5.183 1.59-7 2.57l-.129.601c-.355 1.602-1.548 7.031-1.56 7.558-.01.613-.246 1.677-.246 1.677s-.635 1.398-.807 1.957c-.796 2.537-.172 4.87.194 7.3.258 1.698.462 3.977.344 5.052-.172 1.645-.678 4.021-.678 4.021zM11.84 40.185c1.311-5.762 2.666-11.481 3.935-17.254h7l.01.28h-1.633v2.633l-.162.236c-.85 1.215-1.312 1.86-2.107 2.807-.119.14-.592.601-.72.752-.355.602-.624.968-.732 1.15-.118.334-.667 1.01-.667 1.01-.182.194-.376.377-.559.56.15.312.484.043.613-.075.29-.27.58-.667.893-1.043.15-.183.387-.312.387-.312-.022.258.01.785-.011 1.043 0 .161.097.28.28.172.021-.161.053-.516.118-.688.075-.204.161-.42.236-.613.119-.29.087-.247.205-.537.053-.14-.054-.377 0-.517.688-.806 1.462-1.677 2.226-2.547v16.33l2.086.01v.313l-9.463-.044v-.311l2 .01V24.404l-4.44 19.47-3.7.043L2.41 23.189h-.011l.172 17.63c.021.872.032 1.667.42 2.172.268.355.73.527 1.408.613l.473.011.01.312L0 43.873v-.301c.742.032 1.591-.161 1.871-.613.43-.699.323-1.817.387-2.913l-.15-16.836H.505v-.28c2.495.022 4.979.011 7.441-.01l3.893 17.265zm29.484-15.029v-1.172c-.936.237-2.14.796-4 1.806a28.902 28.902 0 0 0-4.301 2.903c-1.011.828-1.592 1.473-1.592 1.473.194-.097.409-.162.58-.29 1.947-1.516 6.775-4.408 9.259-4.71.021-.01.043-.01.054-.01zm-8.624 2.01c-.15.43-.301.85-.462 1.28.075-.108.193-.226.333-.398.882-1.075 2.355-2.236 3.355-3.01.989-.753 2.892-1.99 3.42-2.021.16-.011.322.01.375.086.054.053-.58 1.322-.634 1.548 0 .01.01.032.022.043.107-.14 1.258-1.806 1.3-2.086-.096-.344-.924-.236-1.204-.15-1.075.333-3.656 1.752-6.505 4.708zm-7.376-4.235c-.13.075-.172.064-.205.043-.021-.011.893-1.538.968-1.688.409-.957.387-1.161.548-1.323.119-.118.366-.419.86-.634.334-.269.624-.57.958-.838.075.16.322.258.473.311l-.033-1.806s-.376-.494-.849-.838c-.452-.194-1.075-.086-1.15-.119 0-.15-.054-.537-.28-.828-.215-.268-.85-.601-1.075-.601-.097.043-.334.053-.538-.14-.344-.28-.43-.678-.355-1.108.086-.494.473-.881.936-1.075.548-.225 1.268-.28 1.86-.193.462.064 2.462.57 2.398 1.215-.032.28-.645.526-1.495.71-.85.16-1.634-.044-2.226-.356-.182-.096-.3-.258-.172-.01.065.107.226.247.452.376.806.473 1.57.58 2.484.322.107-.032.236-.075.322-.129 0 .108-.01.216 0 .323.022.269.086.666.301 1.118a3.017 3.017 0 0 0 1.108 1.226c.333-.194.806-.549 1.129-.742-.01-.28-.054-.495.129-.914.387-1.043 1.323-2.806 1.56-3.612.15-.505.601-1.226.72-1.677.236-1.43.387-3.505.956-5.408.087-.29.14-.387.237-.666.161-.226.333-.377.495-.592.064-.129.258-.269.312-.537.064-.29.365-.731.43-.86.053-.323-.162-.248-.172-.226-.13.183-.409.58-.549.763.032-.15.13-.774.15-.924.033-.215.022-1.764-.311-1.495 0 0 .054.495 0 .914-.022.15-.054.495-.194.85-.258.634-.548 1.408-.527 1.408-.129.247-.268.494-.354.73-.689 1.86-.968 3.13-1.527 4.87-.269 1.119-.194 2.527-.194 2.527-.107.194-.215.387-.312.592-.258.548-.387 1.064-.591 1.57-.215.526-.516 1.042-.731 1.655-.043.28-.086.559-.118.838 0 0-.29.678-.764.334-.43-.27-.71-1.065-.774-1.398-.043-.215.021-.42.118-.613.172-.344.484-.71.592-.86 0-.258-.302-.505-.302-.505a5.581 5.581 0 0 0-2.44-1.054c-.947-.15-1.968-.01-2.624.473-.333.237-.645.667-.753 1.258-.096.549.097 1.022.549 1.355 0 0-.549.892.236 1.548s1.688-.043 1.688-.043a3 3 0 0 1 .624-.075c.839.075 1.516.602 1.075 1.752 0 0-.828.774-1.021.892-.194.108-.56.14-1.043.58-.484.442-.516 1.033-.753 1.538-.226.505-1.344 2.355-1.914 2.903-.57.559-1.494.72-1.785.914-.193.129-.516.57-.72.849v1.42c.634-.721 1.269-1.442 1.838-2.119a8.63 8.63 0 0 1 .882-.559c.377-.215 1.065-.72 1.28-.838 1.043-.968 1.29-1.075 2.236-2.064.484-.527.99-.86 1.043-.785.226.118.441.225.667.344 0 0 .58.344 1.258 1.548.677 1.204 1.774 4.408 1.774 4.408.205-.108.398-.205.602-.312l1.775-9.407a2.11 2.11 0 0 0-.29-.656s-1.56.634-2.947 1.688c-1.387 1.043-2.194 2.075-2.194 2.075a19.198 19.198 0 0 0-.72-.258c-.333.075-.505.269-.785.537-.57.645-1.097 1.086-1.935 1.828-.108.118-.194.215-.301.28zm-.936 10.912c-.064-.054-1.516-1.828-1.527-1.85 1.269-2.311 4.527-4.569 6.43-5.278.689-.258 1.624-.441 2.344-.29-.129-.194-.376-.71-.72-.839-1.172-.301-4.99.118-6.204.731-1.248.473-2.387 1.118-3.097 1.935.87.688 1.215.914 1.742 2.054-.516.634-1.032 1.279-1.549 1.913.678.58 1.366 1.172 2.043 1.753.183-.043.366-.086.538-.13zm-.624-4.14c1.592-1.505 3-2.515 4.968-3.547-1.935-.086-3.935.193-6.226 1.967.43.527.85 1.054 1.258 1.58zm6.183 3.667c.086 1.085.377 4.977.366 5.89-.01 1.065-1.162 4.248-1 4.871.161.623 1.365-2.118 1.365-2.118.302-.666.613-1.344.914-2.01.183-1.01.355-2.01.538-3.021l1.333-5.88a38.91 38.91 0 0 0-3.516 2.268z"/>
    </g>
    <defs>
        <clipPath id="a">
            <path fill="#fff" d="M0 0h59v59H0z"/>
        </clipPath>
    </defs>
</svg>
